{"glyphs":{"0":{"ha":600,"x_min":52,"x_max":547,"o":"m 305 1529 l 305 1529 q 376 1529 431 1497 q 485 1464 516 1405 q 547 1346 547 1266 l 547 1266 q 547 1186 515 1123 q 483 1059 427 1023 q 370 986 294 986 l 294 986 q 225 986 170 1019 q 115 1051 84 1111 q 52 1170 52 1250 l 52 1250 q 52 1329 84 1392 q 115 1455 172 1492 q 229 1529 305 1529 m 296 1511 l 296 1511 q 232 1511 191 1443 q 149 1375 149 1253 l 149 1253 q 149 1163 170 1109 q 191 1054 227 1029 q 262 1004 303 1004 l 303 1004 q 368 1004 409 1073 q 450 1141 450 1263 l 450 1263 q 450 1353 429 1408 q 408 1462 373 1487 q 338 1511 296 1511"},"1":{"ha":370,"x_min":47,"x_max":349,"o":"m 253 1526 l 253 1526 l 253 1103 q 253 1055 275 1038 q 297 1021 349 1021 l 349 1021 l 349 1000 q 329 1001 291 1003 q 252 1004 211 1004 l 211 1004 q 165 1004 123 1003 q 80 1001 57 1000 l 57 1000 l 57 1021 q 107 1021 135 1038 q 163 1054 163 1103 l 163 1103 l 163 1345 q 163 1393 153 1416 q 143 1439 118 1446 q 92 1453 47 1453 l 47 1453 l 47 1475 q 119 1477 167 1488 q 215 1499 253 1526"},"2":{"ha":479,"x_min":47,"x_max":434,"o":"m 244 1529 l 244 1529 q 313 1529 354 1497 q 394 1464 394 1403 l 394 1403 q 394 1363 376 1328 q 357 1292 327 1260 q 297 1227 263 1197 q 229 1166 197 1137 q 165 1107 143 1077 l 143 1077 l 346 1077 q 387 1077 398 1089 q 409 1100 413 1128 l 413 1128 l 430 1128 q 430 1075 431 1047 q 432 1018 434 995 l 434 995 q 425 997 401 998 q 377 999 346 1000 q 315 1000 285 1000 l 285 1000 l 51 1000 l 51 1017 q 81 1050 123 1088 q 165 1125 205 1170 q 244 1214 271 1267 q 297 1319 297 1381 l 297 1381 q 297 1438 271 1464 q 244 1489 197 1489 l 197 1489 q 157 1489 123 1466 q 89 1442 63 1395 l 63 1395 l 47 1404 q 62 1436 88 1465 q 113 1493 152 1511 q 190 1529 244 1529"},"3":{"ha":451,"x_min":37,"x_max":407,"o":"m 227 1529 l 227 1529 q 269 1529 302 1516 q 334 1502 353 1477 q 371 1451 371 1415 l 371 1415 q 371 1376 350 1344 q 328 1311 294 1288 q 260 1264 222 1250 l 222 1250 q 269 1249 311 1233 q 353 1216 380 1183 q 407 1150 407 1098 l 407 1098 q 407 1052 386 1014 q 364 975 327 945 q 289 914 241 893 q 193 871 141 860 q 88 849 37 849 l 37 849 l 37 867 q 88 868 137 884 q 186 899 226 928 q 265 957 289 1000 q 312 1043 312 1098 l 312 1098 q 312 1157 284 1196 q 255 1234 206 1238 l 206 1238 q 191 1232 180 1228 q 168 1223 159 1223 l 159 1223 q 151 1223 147 1227 q 143 1230 143 1236 l 143 1236 q 143 1245 151 1250 q 159 1255 169 1255 l 169 1255 q 177 1255 186 1254 q 194 1252 204 1251 l 204 1251 q 245 1282 263 1320 q 281 1357 281 1395 l 281 1395 q 281 1442 258 1464 q 234 1485 194 1485 l 194 1485 q 153 1485 119 1463 q 84 1441 61 1396 l 61 1396 l 44 1404 q 59 1437 83 1466 q 107 1494 143 1512 q 178 1529 227 1529"},"4":{"ha":494,"x_min":17,"x_max":458,"o":"m 17 1075 l 342 1529 l 358 1529 l 358 1121 l 370 1121 q 411 1121 422 1133 q 433 1144 437 1172 l 437 1172 l 454 1172 q 454 1123 455 1097 q 456 1071 458 1049 l 458 1049 q 451 1051 436 1052 q 420 1052 399 1053 l 399 1053 q 379 1054 358 1054 l 358 1054 l 358 859 l 278 859 l 278 1054 l 17 1054 l 17 1075 m 76 1121 l 278 1121 l 278 1407 l 76 1121"},"5":{"ha":415,"x_min":45,"x_max":375,"o":"m 315 1565 l 334 1565 q 334 1508 335 1476 q 336 1444 338 1419 l 338 1419 q 330 1421 308 1422 q 285 1423 256 1424 q 227 1424 199 1424 l 199 1424 l 93 1424 l 81 1231 q 103 1242 130 1252 q 157 1261 198 1261 l 198 1261 q 259 1261 298 1241 q 337 1221 356 1186 q 375 1151 375 1107 l 375 1107 q 375 1049 346 1002 q 317 955 269 922 q 220 888 162 870 q 104 852 45 852 l 45 852 l 45 870 q 89 870 131 885 q 173 899 207 928 q 240 956 260 998 q 280 1040 280 1097 l 280 1097 q 280 1160 248 1196 q 215 1231 154 1231 l 154 1231 q 128 1231 111 1227 q 93 1222 72 1214 l 72 1214 l 62 1220 l 81 1518 q 92 1516 107 1515 q 121 1514 135 1514 l 135 1514 l 248 1514 q 289 1514 300 1526 q 311 1537 315 1565 l 315 1565"},"6":{"ha":517,"x_min":55,"x_max":479,"o":"m 394 1723 l 394 1723 l 398 1703 q 365 1692 331 1675 q 296 1658 264 1628 q 232 1598 207 1552 q 182 1505 167 1437 l 167 1437 q 159 1401 155 1358 l 155 1358 q 162 1371 171 1381 l 171 1381 q 199 1412 235 1425 q 270 1438 299 1438 l 299 1438 q 346 1438 387 1413 q 428 1387 454 1339 q 479 1290 479 1220 l 479 1220 q 479 1145 449 1093 q 419 1040 369 1013 q 319 986 259 986 l 259 986 q 164 986 110 1061 q 55 1135 55 1270 l 55 1270 q 55 1361 77 1431 q 99 1501 136 1553 q 172 1604 217 1639 q 261 1674 308 1695 q 354 1715 394 1723 m 153 1323 l 153 1323 q 152 1299 152 1272 l 152 1272 q 152 1167 170 1109 q 188 1051 215 1029 q 242 1006 269 1006 l 269 1006 q 299 1006 325 1027 q 350 1047 366 1093 q 382 1139 382 1213 l 382 1213 q 382 1285 368 1328 q 353 1371 329 1390 q 304 1409 274 1409 l 274 1409 q 252 1409 226 1399 q 200 1389 178 1366 l 178 1366 q 163 1349 153 1323"},"7":{"ha":406,"x_min":27,"x_max":398,"o":"m 27 1519 l 27 1519 q 36 1517 60 1516 q 84 1515 115 1515 q 146 1514 176 1514 l 176 1514 l 398 1514 l 398 1493 q 377 1442 348 1388 q 318 1334 290 1273 q 261 1211 243 1140 q 224 1068 225 982 l 225 982 q 225 966 226 952 q 227 938 228 926 q 229 914 229 903 l 229 903 q 229 881 216 867 q 203 852 182 852 l 182 852 q 159 852 148 869 q 137 886 137 908 l 137 908 q 137 976 155 1039 q 172 1102 200 1162 q 228 1221 262 1278 q 295 1334 328 1388 l 328 1388 q 340 1409 352 1430 l 352 1430 l 115 1430 q 74 1430 63 1419 q 52 1408 48 1379 l 48 1379 l 31 1379 q 31 1432 30 1464 q 29 1496 27 1519"},"8":{"ha":520,"x_min":52,"x_max":469,"o":"m 268 1722 l 268 1722 q 313 1722 351 1707 q 388 1691 411 1661 q 433 1630 433 1585 l 433 1585 q 433 1524 393 1477 l 393 1477 q 358 1436 306 1401 l 306 1401 q 311 1397 316 1394 l 316 1394 q 355 1366 390 1336 q 425 1305 447 1267 q 469 1228 469 1177 l 469 1177 q 469 1120 441 1077 q 413 1034 365 1010 q 316 986 253 986 l 253 986 q 200 986 154 1005 q 108 1023 80 1061 q 52 1098 52 1154 l 52 1154 q 52 1206 76 1248 q 99 1289 139 1321 l 139 1321 q 172 1347 212 1367 l 212 1367 q 186 1388 162 1410 l 162 1410 q 128 1441 107 1479 q 85 1517 85 1566 l 85 1566 q 85 1613 110 1648 q 134 1683 176 1703 q 217 1722 268 1722 m 227 1355 l 227 1355 q 181 1322 161 1276 l 161 1276 q 140 1226 140 1169 l 140 1169 q 140 1126 152 1089 q 163 1051 190 1028 q 216 1004 259 1004 l 259 1004 q 309 1004 347 1038 q 384 1071 384 1135 l 384 1135 q 384 1184 363 1221 q 341 1258 307 1290 q 273 1321 235 1350 l 235 1350 q 231 1353 227 1355 m 291 1412 l 291 1412 q 311 1431 324 1452 l 324 1452 q 339 1478 346 1509 q 353 1539 353 1572 l 353 1572 q 353 1631 329 1668 q 304 1704 257 1704 l 257 1704 q 217 1704 190 1676 q 163 1647 163 1597 l 163 1597 q 163 1550 185 1515 q 207 1479 242 1450 l 242 1450 q 265 1431 291 1412"},"9":{"ha":509,"x_min":37,"x_max":461,"o":"m 257 1529 l 257 1529 q 352 1529 407 1460 q 461 1391 461 1265 l 461 1265 q 461 1183 439 1119 q 417 1055 381 1008 q 344 960 300 928 q 255 896 209 878 q 163 859 122 852 l 122 852 l 118 872 q 159 884 203 906 q 246 928 283 970 q 319 1012 342 1083 l 342 1083 q 351 1113 357 1150 l 357 1150 q 351 1142 345 1135 l 345 1135 q 317 1103 282 1090 q 247 1077 217 1077 l 217 1077 q 171 1077 130 1103 q 88 1128 63 1177 q 37 1225 37 1295 l 37 1295 q 37 1370 67 1423 q 97 1475 147 1502 q 197 1529 257 1529 m 361 1186 l 361 1186 q 364 1222 364 1263 l 364 1263 q 364 1361 346 1414 q 328 1467 302 1488 q 275 1509 247 1509 l 247 1509 q 218 1509 192 1489 q 166 1468 150 1423 q 134 1377 134 1302 l 134 1302 q 134 1230 149 1187 q 163 1144 188 1125 q 213 1106 242 1106 l 242 1106 q 264 1106 290 1116 q 316 1126 339 1150 l 339 1150 q 352 1164 361 1186"},"A":{"ha":630,"x_min":-7,"x_max":636,"o":"m 307 1713 l 323 1713 l 567 1084 q 582 1046 601 1034 q 620 1021 636 1020 l 636 1020 l 636 1000 q 616 1002 587 1003 q 558 1003 529 1003 l 529 1003 q 490 1003 456 1003 q 422 1002 401 1000 l 401 1000 l 401 1020 q 452 1022 466 1038 q 480 1053 460 1104 l 460 1104 l 399 1268 l 157 1268 l 116 1162 q 100 1122 97 1095 q 94 1067 103 1051 q 111 1035 132 1028 q 152 1021 183 1020 l 183 1020 l 183 1000 q 155 1002 125 1003 q 94 1003 68 1003 l 68 1003 q 43 1003 26 1003 q 8 1002 -7 1000 l -7 1000 l -7 1020 q 13 1025 34 1044 q 55 1062 72 1107 l 72 1107 l 307 1713 m 165 1288 l 391 1288 l 279 1587 l 165 1288"},"B":{"ha":623,"x_min":42,"x_max":578,"o":"m 42 1688 l 42 1708 q 63 1707 97 1706 q 131 1705 164 1705 l 164 1705 q 211 1705 254 1706 q 297 1707 315 1707 l 315 1707 q 420 1707 473 1663 q 526 1619 526 1550 l 526 1550 q 526 1515 512 1482 q 497 1448 464 1421 q 430 1393 374 1376 l 374 1376 l 374 1374 q 453 1364 498 1337 q 542 1309 560 1272 q 578 1235 578 1194 l 578 1194 q 578 1137 550 1094 q 521 1050 467 1025 q 413 1000 338 1000 l 338 1000 q 316 1000 272 1002 q 228 1003 166 1003 l 166 1003 q 131 1003 97 1003 q 63 1002 42 1000 l 42 1000 l 42 1020 q 76 1022 94 1028 q 111 1034 117 1052 q 123 1070 123 1106 l 123 1106 l 123 1602 q 123 1639 117 1657 q 111 1674 94 1681 q 76 1687 42 1688 l 42 1688 m 300 1359 l 216 1359 l 216 1106 q 216 1071 222 1053 q 228 1035 244 1029 q 260 1023 291 1023 l 291 1023 q 389 1023 434 1069 q 478 1114 478 1198 l 478 1198 q 478 1275 437 1317 q 395 1359 300 1359 l 300 1359 m 290 1688 l 290 1688 q 244 1688 230 1671 q 216 1654 216 1602 l 216 1602 l 216 1376 l 283 1376 q 342 1376 374 1399 q 406 1421 418 1459 q 430 1496 430 1539 l 430 1539 q 430 1613 398 1651 q 365 1688 290 1688"},"C":{"ha":688,"x_min":53,"x_max":623,"o":"m 371 1722 l 371 1722 q 437 1722 480 1703 q 522 1683 555 1657 l 555 1657 q 575 1642 586 1654 q 596 1665 600 1708 l 600 1708 l 623 1708 q 621 1671 620 1618 q 619 1565 619 1478 l 619 1478 l 596 1478 q 589 1521 583 1547 q 577 1572 569 1590 q 560 1608 546 1626 l 546 1626 q 515 1667 468 1686 q 421 1704 369 1704 l 369 1704 q 320 1704 281 1680 q 241 1655 213 1609 q 184 1563 169 1498 q 153 1433 153 1352 l 153 1352 q 153 1268 170 1204 q 187 1139 218 1095 q 248 1051 290 1029 q 331 1006 379 1006 l 379 1006 q 424 1006 473 1024 q 522 1042 550 1082 l 550 1082 q 572 1111 581 1145 q 589 1179 596 1240 l 596 1240 l 619 1240 q 619 1149 620 1094 q 621 1038 623 1000 l 623 1000 l 600 1000 q 596 1043 587 1054 q 577 1065 555 1051 l 555 1051 q 518 1025 477 1006 q 435 986 370 986 l 370 986 q 275 986 204 1029 q 132 1072 93 1153 q 53 1234 53 1348 l 53 1348 q 53 1460 94 1544 q 135 1628 207 1675 q 278 1722 371 1722"},"D":{"ha":723,"x_min":42,"x_max":668,"o":"m 315 1708 l 315 1708 q 494 1708 581 1619 q 668 1529 668 1362 l 668 1362 q 668 1253 626 1172 q 583 1090 502 1045 q 421 1000 306 1000 l 306 1000 q 291 1000 266 1001 q 241 1002 215 1003 q 188 1003 166 1003 l 166 1003 q 131 1003 97 1003 q 63 1002 42 1000 l 42 1000 l 42 1020 q 76 1022 94 1028 q 111 1034 117 1052 q 123 1070 123 1106 l 123 1106 l 123 1602 q 123 1639 117 1657 q 111 1674 94 1681 q 76 1687 42 1688 l 42 1688 l 42 1708 q 63 1707 97 1706 q 131 1704 164 1705 l 164 1705 q 199 1706 243 1707 q 287 1708 315 1708 m 290 1690 l 290 1690 q 244 1690 230 1673 q 216 1656 216 1604 l 216 1604 l 216 1104 q 216 1052 231 1035 q 245 1018 291 1018 l 291 1018 q 400 1018 460 1058 q 520 1097 544 1173 q 568 1249 568 1358 l 568 1358 q 568 1470 542 1544 q 515 1617 455 1654 q 394 1690 290 1690"},"E":{"ha":609,"x_min":42,"x_max":561,"o":"m 541 1708 l 541 1708 q 537 1673 536 1640 q 534 1607 534 1590 l 534 1590 q 534 1572 535 1556 q 536 1539 537 1528 l 537 1528 l 514 1528 q 508 1587 497 1622 q 486 1656 460 1671 q 433 1685 380 1685 l 380 1685 l 297 1685 q 263 1685 246 1680 q 228 1674 222 1657 q 216 1639 216 1602 l 216 1602 l 216 1366 l 282 1366 q 315 1366 333 1380 q 350 1393 358 1414 q 366 1435 369 1458 q 372 1480 375 1498 l 375 1498 l 398 1498 q 394 1441 395 1411 q 395 1381 395 1356 q 395 1331 396 1301 q 397 1271 401 1214 l 401 1214 l 378 1214 q 374 1246 369 1277 q 363 1307 345 1327 q 326 1346 282 1346 l 282 1346 l 216 1346 l 216 1106 q 216 1070 222 1052 q 228 1034 246 1029 q 263 1023 297 1023 l 297 1023 l 370 1023 q 433 1023 466 1040 q 498 1057 513 1096 q 527 1134 534 1200 l 534 1200 l 557 1200 q 554 1173 554 1128 l 554 1128 q 554 1109 556 1074 q 557 1038 561 1000 l 561 1000 q 510 1002 446 1003 q 382 1003 332 1003 l 332 1003 l 276 1003 q 241 1003 201 1003 q 161 1002 120 1002 q 79 1001 42 1000 l 42 1000 l 42 1020 q 76 1022 94 1028 q 111 1034 117 1052 q 123 1070 123 1106 l 123 1106 l 123 1602 q 123 1639 117 1657 q 111 1674 94 1681 q 76 1687 42 1688 l 42 1688 l 42 1708 q 79 1707 120 1707 q 161 1706 201 1706 q 241 1705 276 1705 l 276 1705 l 332 1705 q 378 1705 437 1706 q 495 1706 541 1708"},"F":{"ha":569,"x_min":42,"x_max":541,"o":"m 541 1708 l 541 1708 q 537 1670 536 1635 q 534 1599 534 1580 l 534 1580 q 534 1556 535 1535 q 536 1514 537 1498 l 537 1498 l 514 1498 q 507 1568 495 1609 q 483 1649 453 1667 q 423 1685 360 1685 l 360 1685 l 297 1685 q 263 1685 246 1680 q 228 1674 222 1657 q 216 1639 216 1602 l 216 1602 l 216 1356 l 289 1356 q 322 1356 340 1370 q 357 1383 365 1404 q 373 1425 376 1448 q 379 1470 382 1488 l 382 1488 l 405 1488 q 401 1431 402 1401 q 402 1371 402 1346 q 402 1321 403 1291 q 404 1261 408 1204 l 408 1204 l 385 1204 q 381 1236 376 1267 q 370 1297 352 1317 q 333 1336 289 1336 l 289 1336 l 216 1336 l 216 1106 q 216 1070 224 1052 q 231 1034 253 1028 q 275 1022 317 1020 l 317 1020 l 317 1000 q 291 1002 251 1003 q 211 1003 170 1003 l 170 1003 q 131 1003 97 1003 q 63 1002 42 1000 l 42 1000 l 42 1020 q 76 1022 94 1028 q 111 1034 117 1052 q 123 1070 123 1106 l 123 1106 l 123 1602 q 123 1639 117 1657 q 111 1674 94 1681 q 76 1687 42 1688 l 42 1688 l 42 1708 q 79 1707 120 1707 q 161 1706 201 1706 q 241 1705 276 1705 l 276 1705 l 332 1705 q 378 1705 437 1706 q 495 1706 541 1708"},"G":{"ha":703,"x_min":54,"x_max":669,"o":"m 376 1722 l 376 1722 q 441 1722 481 1703 q 521 1683 556 1657 l 556 1657 q 569 1647 576 1647 l 576 1647 q 595 1647 601 1708 l 601 1708 l 624 1708 q 622 1671 621 1618 q 620 1565 620 1478 l 620 1478 l 597 1478 q 590 1520 580 1559 q 570 1598 547 1626 l 547 1626 q 518 1663 471 1684 q 424 1704 374 1704 l 374 1704 q 324 1704 284 1680 q 243 1655 214 1609 q 185 1563 170 1499 q 154 1434 154 1353 l 154 1353 q 154 1173 212 1090 q 270 1006 392 1006 l 392 1006 q 428 1006 455 1017 q 481 1027 496 1037 l 496 1037 q 515 1050 520 1062 q 525 1073 525 1092 l 525 1092 l 525 1188 q 525 1229 517 1249 q 509 1269 488 1276 q 466 1283 424 1284 l 424 1284 l 424 1304 q 442 1303 466 1303 q 490 1302 517 1302 q 543 1301 565 1301 l 565 1301 q 598 1301 625 1302 q 651 1303 669 1304 l 669 1304 l 669 1284 q 647 1283 636 1277 q 625 1271 622 1253 q 618 1235 618 1198 l 618 1198 l 618 1000 l 598 1000 q 597 1017 591 1037 q 584 1057 571 1057 l 571 1057 q 565 1057 559 1054 q 553 1051 538 1040 l 538 1040 q 505 1015 468 1001 q 431 986 382 986 l 382 986 q 279 986 206 1029 q 132 1071 93 1151 q 54 1231 54 1342 l 54 1342 q 54 1459 96 1544 q 138 1629 211 1676 q 283 1722 376 1722"},"H":{"ha":757,"x_min":42,"x_max":715,"o":"m 460 1000 l 460 1000 l 460 1020 q 494 1022 512 1028 q 529 1034 535 1052 q 541 1070 541 1106 l 541 1106 l 541 1346 l 216 1346 l 216 1106 q 216 1070 222 1052 q 228 1034 246 1028 q 263 1022 297 1020 l 297 1020 l 297 1000 q 274 1002 240 1003 q 205 1003 170 1003 l 170 1003 q 131 1003 97 1003 q 63 1002 42 1000 l 42 1000 l 42 1020 q 76 1022 94 1028 q 111 1034 117 1052 q 123 1070 123 1106 l 123 1106 l 123 1602 q 123 1639 117 1657 q 111 1674 94 1681 q 76 1687 42 1688 l 42 1688 l 42 1708 q 63 1707 97 1706 q 131 1705 170 1705 l 170 1705 q 205 1705 240 1706 q 274 1707 297 1708 l 297 1708 l 297 1688 q 263 1687 246 1681 q 228 1674 222 1657 q 216 1639 216 1602 l 216 1602 l 216 1366 l 541 1366 l 541 1602 q 541 1639 535 1657 q 529 1674 512 1681 q 494 1687 460 1688 l 460 1688 l 460 1708 q 483 1707 518 1706 q 553 1705 587 1705 l 587 1705 q 626 1705 660 1706 q 694 1707 715 1708 l 715 1708 l 715 1688 q 681 1687 664 1681 q 646 1674 640 1657 q 634 1639 634 1602 l 634 1602 l 634 1106 q 634 1070 640 1052 q 646 1034 664 1028 q 681 1022 715 1020 l 715 1020 l 715 1000 q 694 1002 660 1003 q 626 1003 587 1003 l 587 1003 q 553 1003 518 1003 q 483 1002 460 1000"},"I":{"ha":339,"x_min":42,"x_max":297,"o":"m 297 1708 l 297 1708 l 297 1688 q 263 1687 246 1681 q 228 1674 222 1657 q 216 1639 216 1602 l 216 1602 l 216 1106 q 216 1070 222 1052 q 228 1034 246 1028 q 263 1022 297 1020 l 297 1020 l 297 1000 q 274 1002 240 1003 q 205 1003 170 1003 l 170 1003 q 131 1003 97 1003 q 63 1002 42 1000 l 42 1000 l 42 1020 q 76 1022 94 1028 q 111 1034 117 1052 q 123 1070 123 1106 l 123 1106 l 123 1602 q 123 1639 117 1657 q 111 1674 94 1681 q 76 1687 42 1688 l 42 1688 l 42 1708 q 63 1707 97 1706 q 131 1705 170 1705 l 170 1705 q 205 1705 240 1706 q 274 1707 297 1708"},"J":{"ha":326,"x_min":-20,"x_max":291,"o":"m -20 812 l -20 812 l -20 831 q 25 832 56 853 q 86 874 102 923 q 117 971 117 1052 l 117 1052 l 117 1602 q 117 1639 111 1657 q 105 1674 88 1681 q 70 1687 36 1688 l 36 1688 l 36 1708 q 57 1707 91 1706 q 125 1705 162 1705 l 162 1705 q 199 1705 234 1706 q 268 1707 291 1708 l 291 1708 l 291 1688 q 257 1687 240 1681 q 222 1674 216 1657 q 210 1639 210 1602 l 210 1602 l 210 1236 q 210 1195 209 1147 q 208 1099 205 1054 q 201 1009 193 975 l 193 975 q 176 905 122 859 q 67 812 -20 812"},"K":{"ha":655,"x_min":42,"x_max":654,"o":"m 615 1708 l 615 1708 l 615 1688 q 584 1684 555 1668 q 526 1652 497 1615 l 497 1615 l 334 1406 l 566 1081 q 583 1056 603 1042 q 623 1028 654 1020 l 654 1020 l 654 1000 q 630 1002 595 1003 q 559 1003 534 1003 l 534 1003 q 517 1003 493 1003 q 468 1002 431 1000 l 431 1000 l 431 1020 q 465 1022 474 1032 q 483 1042 467 1065 l 467 1065 l 321 1285 q 301 1316 286 1332 q 270 1347 254 1352 l 254 1352 q 238 1357 216 1358 l 216 1358 l 216 1106 q 216 1070 222 1052 q 228 1034 246 1028 q 263 1022 297 1020 l 297 1020 l 297 1000 q 274 1002 240 1003 q 205 1003 170 1003 l 170 1003 q 131 1003 97 1003 q 63 1002 42 1000 l 42 1000 l 42 1020 q 76 1022 94 1028 q 111 1034 117 1052 q 123 1070 123 1106 l 123 1106 l 123 1602 q 123 1639 117 1657 q 111 1674 94 1681 q 76 1687 42 1688 l 42 1688 l 42 1708 q 63 1707 97 1706 q 131 1705 170 1705 l 170 1705 q 205 1705 240 1706 q 274 1707 297 1708 l 297 1708 l 297 1688 q 263 1687 246 1681 q 228 1674 222 1657 q 216 1639 216 1602 l 216 1602 l 216 1378 q 255 1380 283 1395 l 283 1395 q 311 1410 330 1434 l 330 1434 l 426 1556 q 459 1598 471 1627 q 483 1656 470 1672 q 457 1687 415 1688 l 415 1688 l 415 1708 q 434 1707 454 1707 q 474 1706 494 1706 q 513 1705 530 1705 l 530 1705 q 556 1705 578 1706 q 600 1707 615 1708"},"L":{"ha":588,"x_min":42,"x_max":561,"o":"m 297 1708 l 297 1708 l 297 1688 q 263 1687 246 1681 q 228 1674 222 1657 q 216 1639 216 1602 l 216 1602 l 216 1106 q 216 1070 222 1052 q 228 1034 246 1029 q 263 1023 297 1023 l 297 1023 l 370 1023 q 417 1023 447 1033 q 476 1043 494 1065 q 511 1086 520 1122 q 529 1158 534 1210 l 534 1210 l 557 1210 q 554 1179 554 1128 l 554 1128 q 554 1109 556 1074 q 557 1038 561 1000 l 561 1000 q 510 1002 446 1003 q 382 1003 332 1003 l 332 1003 l 276 1003 q 241 1003 201 1003 q 161 1002 120 1002 q 79 1001 42 1000 l 42 1000 l 42 1020 q 76 1022 94 1028 q 111 1034 117 1052 q 123 1070 123 1106 l 123 1106 l 123 1602 q 123 1639 117 1657 q 111 1674 94 1681 q 76 1687 42 1688 l 42 1688 l 42 1708 q 63 1707 97 1706 q 131 1705 170 1705 l 170 1705 q 205 1705 240 1706 q 274 1707 297 1708"},"M":{"ha":871,"x_min":42,"x_max":829,"o":"m 829 1708 l 829 1708 l 829 1688 q 795 1687 778 1681 q 760 1674 754 1657 q 748 1639 748 1602 l 748 1602 l 748 1106 q 748 1070 754 1052 q 760 1034 778 1028 q 795 1022 829 1020 l 829 1020 l 829 1000 q 806 1002 772 1003 q 737 1003 702 1003 l 702 1003 q 663 1003 629 1003 q 595 1002 574 1000 l 574 1000 l 574 1020 q 608 1022 626 1028 q 643 1034 649 1052 q 655 1070 655 1106 l 655 1106 l 655 1642 l 414 995 l 398 995 l 146 1644 l 146 1116 q 146 1080 153 1060 q 159 1039 179 1031 q 198 1022 237 1020 l 237 1020 l 237 1000 q 219 1002 190 1003 q 161 1003 135 1003 l 135 1003 q 110 1003 85 1003 q 59 1002 42 1000 l 42 1000 l 42 1020 q 76 1022 94 1031 q 111 1039 117 1060 q 123 1080 123 1116 l 123 1116 l 123 1602 q 123 1639 117 1657 q 111 1674 94 1681 q 76 1687 42 1688 l 42 1688 l 42 1708 q 59 1707 85 1706 q 110 1705 135 1705 l 135 1705 q 157 1705 181 1706 q 204 1707 220 1708 l 220 1708 l 440 1129 l 655 1705 l 702 1705 q 737 1705 772 1706 q 806 1707 829 1708"},"N":{"ha":706,"x_min":42,"x_max":670,"o":"m 670 1708 l 670 1708 l 670 1688 q 636 1687 619 1678 q 601 1669 595 1649 q 589 1629 589 1592 l 589 1592 l 589 995 l 566 995 l 146 1644 l 146 1116 q 146 1080 153 1060 q 159 1039 179 1031 q 198 1022 237 1020 l 237 1020 l 237 1000 q 219 1002 190 1003 q 161 1003 135 1003 l 135 1003 q 110 1003 85 1003 q 59 1002 42 1000 l 42 1000 l 42 1020 q 76 1022 94 1031 q 111 1039 117 1060 q 123 1080 123 1116 l 123 1116 l 123 1602 q 123 1639 117 1657 q 111 1674 94 1681 q 76 1687 42 1688 l 42 1688 l 42 1708 q 59 1707 85 1706 q 110 1705 135 1705 l 135 1705 q 157 1705 177 1706 q 197 1707 213 1708 l 213 1708 l 566 1164 l 566 1592 q 566 1629 560 1649 q 553 1669 534 1678 q 514 1687 475 1688 l 475 1688 l 475 1708 q 493 1707 523 1706 q 552 1705 577 1705 l 577 1705 q 603 1705 629 1706 q 654 1707 670 1708"},"O":{"ha":741,"x_min":53,"x_max":688,"o":"m 371 1722 l 371 1722 q 466 1722 538 1679 q 609 1636 649 1556 q 688 1475 688 1360 l 688 1360 q 688 1248 648 1164 q 607 1080 535 1033 q 463 986 370 986 l 370 986 q 275 986 204 1029 q 132 1072 93 1153 q 53 1234 53 1348 l 53 1348 q 53 1460 94 1544 q 135 1628 207 1675 q 278 1722 371 1722 m 367 1704 l 367 1704 q 302 1704 254 1659 q 206 1614 180 1535 q 153 1456 153 1352 l 153 1352 q 153 1246 183 1168 q 212 1089 263 1047 q 313 1004 374 1004 l 374 1004 q 439 1004 487 1049 q 535 1094 562 1174 q 588 1253 588 1356 l 588 1356 q 588 1463 559 1541 q 529 1619 479 1662 q 429 1704 367 1704"},"P":{"ha":585,"x_min":42,"x_max":556,"o":"m 42 1688 l 42 1708 q 63 1707 97 1706 q 131 1705 164 1705 l 164 1705 q 211 1705 254 1706 q 297 1707 315 1707 l 315 1707 q 436 1707 496 1652 q 556 1597 556 1510 l 556 1510 q 556 1474 544 1435 q 532 1395 503 1362 q 473 1328 422 1307 q 371 1286 293 1286 l 293 1286 l 216 1286 l 216 1106 q 216 1070 224 1052 q 231 1034 253 1028 q 275 1022 317 1020 l 317 1020 l 317 1000 q 291 1002 251 1003 q 211 1003 170 1003 l 170 1003 q 131 1003 97 1003 q 63 1002 42 1000 l 42 1000 l 42 1020 q 76 1022 94 1028 q 111 1034 117 1052 q 123 1070 123 1106 l 123 1106 l 123 1602 q 123 1639 117 1657 q 111 1674 94 1681 q 76 1687 42 1688 l 42 1688 m 216 1602 l 216 1306 l 283 1306 q 354 1306 392 1333 q 429 1360 443 1404 q 456 1448 456 1499 l 456 1499 q 456 1594 419 1641 q 381 1688 290 1688 l 290 1688 q 244 1688 230 1671 q 216 1654 216 1602 l 216 1602"},"Q":{"ha":741,"x_min":53,"x_max":763,"o":"m 748 977 l 748 977 l 763 971 q 751 930 736 903 q 720 875 700 857 l 700 857 q 681 840 649 826 q 616 812 565 812 l 565 812 q 512 812 463 830 q 413 847 360 872 q 307 897 243 918 l 243 918 q 236 920 230 922 q 224 924 219 925 l 219 925 q 200 918 178 914 q 156 910 136 910 q 116 910 103 915 q 90 920 90 930 l 90 930 q 90 951 144 951 l 144 951 q 179 951 219 943 l 219 943 q 255 953 281 966 l 281 966 q 306 977 332 988 l 332 988 q 260 995 204 1029 l 204 1029 q 132 1072 93 1153 q 53 1234 53 1348 l 53 1348 q 53 1460 94 1544 q 135 1628 207 1675 q 278 1722 371 1722 l 371 1722 q 466 1722 538 1679 q 609 1636 649 1556 q 688 1475 688 1360 l 688 1360 q 688 1248 648 1164 q 607 1080 535 1033 l 535 1033 q 476 994 402 987 l 402 987 l 402 987 q 372 984 350 976 q 328 967 306 957 q 284 947 254 938 l 254 938 q 304 928 363 917 q 422 906 477 898 q 532 890 571 890 l 571 890 q 643 890 685 911 q 726 932 748 977 m 367 1704 l 367 1704 q 302 1704 254 1659 q 206 1614 180 1535 q 153 1456 153 1352 l 153 1352 q 153 1246 183 1168 q 212 1089 263 1047 q 313 1004 374 1004 l 374 1004 q 439 1004 487 1049 q 535 1094 562 1174 q 588 1253 588 1356 l 588 1356 q 588 1463 559 1541 q 529 1619 479 1662 q 429 1704 367 1704"},"R":{"ha":648,"x_min":42,"x_max":660,"o":"m 42 1688 l 42 1708 q 63 1707 97 1706 q 131 1705 164 1705 l 164 1705 q 211 1705 254 1706 q 297 1707 315 1707 l 315 1707 q 396 1707 450 1684 q 503 1661 530 1622 q 556 1582 556 1533 l 556 1533 q 556 1503 544 1469 q 532 1435 503 1405 q 473 1375 422 1356 l 422 1356 q 396 1346 363 1341 l 363 1341 q 369 1340 374 1339 l 374 1339 q 441 1328 471 1299 q 500 1269 514 1207 l 514 1207 l 539 1105 q 549 1061 560 1042 q 570 1022 592 1023 l 592 1023 q 609 1024 621 1034 q 632 1044 645 1061 l 645 1061 l 660 1050 q 639 1019 617 1003 q 594 986 553 986 l 553 986 q 516 986 488 1008 q 460 1030 446 1094 l 446 1094 l 424 1194 q 415 1237 404 1269 q 392 1300 372 1318 q 351 1336 311 1336 l 311 1336 l 216 1336 l 216 1106 q 216 1070 222 1052 q 228 1034 246 1028 q 263 1022 297 1020 l 297 1020 l 297 1000 q 274 1002 240 1003 q 205 1003 170 1003 l 170 1003 q 131 1003 97 1003 q 63 1002 42 1000 l 42 1000 l 42 1020 q 76 1022 94 1028 q 111 1034 117 1052 q 123 1070 123 1106 l 123 1106 l 123 1602 q 123 1639 117 1657 q 111 1674 94 1681 q 76 1687 42 1688 l 42 1688 m 216 1602 l 216 1356 l 283 1356 q 354 1356 392 1379 q 429 1401 443 1439 q 456 1476 456 1522 l 456 1522 q 456 1601 419 1645 q 381 1688 290 1688 l 290 1688 q 244 1688 230 1671 q 216 1654 216 1602 l 216 1602"},"S":{"ha":540,"x_min":63,"x_max":491,"o":"m 256 1719 l 256 1719 q 306 1719 332 1708 q 358 1696 378 1682 l 378 1682 q 390 1675 398 1672 q 405 1668 412 1668 l 412 1668 q 422 1668 427 1679 q 431 1690 434 1712 l 434 1712 l 457 1712 q 456 1695 455 1672 q 453 1648 453 1610 q 452 1571 452 1508 l 452 1508 l 429 1508 q 426 1556 408 1600 q 390 1644 356 1672 q 321 1700 265 1700 l 265 1700 q 212 1700 178 1668 q 143 1636 143 1584 l 143 1584 q 143 1539 166 1509 q 189 1478 228 1454 q 266 1429 311 1401 l 311 1401 q 363 1369 404 1338 q 444 1306 468 1268 q 491 1230 491 1176 l 491 1176 q 491 1112 462 1070 q 433 1028 385 1007 q 337 986 279 986 l 279 986 q 226 986 195 998 q 164 1010 142 1023 l 142 1023 q 120 1037 108 1037 l 108 1037 q 98 1037 94 1026 q 89 1015 86 993 l 86 993 l 63 993 q 65 1014 66 1043 q 66 1071 67 1117 q 67 1163 67 1233 l 67 1233 l 90 1233 q 94 1173 113 1121 q 131 1069 170 1038 q 208 1006 272 1006 l 272 1006 q 305 1006 335 1020 q 364 1033 383 1063 q 402 1092 402 1139 l 402 1139 q 402 1180 383 1211 q 363 1241 328 1268 q 293 1294 246 1322 l 246 1322 q 199 1351 158 1381 q 117 1411 93 1451 q 68 1490 68 1546 l 68 1546 q 68 1605 95 1644 q 121 1682 164 1701 q 207 1719 256 1719"},"T":{"ha":621,"x_min":29,"x_max":592,"o":"m 592 1708 l 592 1708 q 588 1670 587 1635 q 585 1599 585 1580 l 585 1580 q 585 1556 586 1535 q 587 1514 588 1498 l 588 1498 l 565 1498 q 558 1568 546 1609 q 534 1649 504 1667 q 474 1685 411 1685 l 411 1685 l 357 1685 l 357 1116 q 357 1076 365 1056 q 372 1036 394 1029 q 416 1022 458 1020 l 458 1020 l 458 1000 q 432 1002 392 1003 q 352 1003 311 1003 l 311 1003 q 266 1003 227 1003 q 187 1002 163 1000 l 163 1000 l 163 1020 q 205 1022 227 1029 q 249 1036 257 1056 q 264 1076 264 1116 l 264 1116 l 264 1685 l 210 1685 q 148 1685 118 1667 q 87 1649 75 1609 q 63 1568 56 1498 l 56 1498 l 33 1498 q 35 1514 36 1535 q 36 1556 36 1580 l 36 1580 q 36 1599 35 1635 q 33 1670 29 1708 l 29 1708 q 71 1707 121 1706 q 170 1705 220 1705 l 220 1705 l 402 1705 q 451 1705 501 1706 q 551 1707 592 1708"},"U":{"ha":682,"x_min":27,"x_max":655,"o":"m 655 1708 l 655 1708 l 655 1688 q 621 1687 604 1678 q 586 1669 580 1649 q 574 1629 574 1592 l 574 1592 l 574 1291 q 574 1221 565 1169 q 556 1117 533 1079 l 533 1079 q 508 1037 460 1012 q 412 986 350 986 l 350 986 q 302 986 259 998 q 215 1009 182 1040 l 182 1040 q 153 1068 137 1099 q 120 1130 114 1175 q 108 1220 108 1288 l 108 1288 l 108 1602 q 108 1639 102 1657 q 96 1674 79 1681 q 61 1687 27 1688 l 27 1688 l 27 1708 q 48 1707 82 1706 q 116 1705 155 1705 l 155 1705 q 190 1705 225 1706 q 259 1707 282 1708 l 282 1708 l 282 1688 q 248 1687 231 1681 q 213 1674 207 1657 q 201 1639 201 1602 l 201 1602 l 201 1271 q 201 1220 206 1175 q 211 1129 227 1095 q 242 1060 274 1041 q 306 1021 359 1021 l 359 1021 q 435 1021 477 1055 q 518 1088 535 1147 q 551 1206 551 1280 l 551 1280 l 551 1592 q 551 1629 543 1649 q 534 1669 514 1678 q 494 1687 460 1688 l 460 1688 l 460 1708 q 478 1707 508 1706 q 537 1705 562 1705 l 562 1705 q 588 1705 614 1706 q 639 1707 655 1708"},"V":{"ha":630,"x_min":-6,"x_max":637,"o":"m 637 1708 l 637 1708 l 637 1688 q 618 1684 597 1665 q 575 1646 558 1601 l 558 1601 l 323 995 l 307 995 l 63 1624 q 48 1662 29 1675 q 10 1687 -6 1688 l -6 1688 l -6 1708 q 14 1707 44 1706 q 73 1705 101 1705 l 101 1705 q 140 1705 174 1706 q 208 1707 229 1708 l 229 1708 l 229 1688 q 195 1687 178 1680 q 160 1673 159 1656 q 157 1638 170 1604 l 170 1604 l 351 1123 l 514 1546 q 535 1600 534 1631 q 533 1661 511 1674 q 489 1687 447 1688 l 447 1688 l 447 1708 q 476 1707 506 1706 q 536 1705 562 1705 q 588 1705 605 1706 q 622 1707 637 1708"},"W":{"ha":905,"x_min":-7,"x_max":907,"o":"m 907 1708 l 907 1708 l 907 1688 q 888 1684 865 1666 q 842 1647 828 1601 l 828 1601 l 639 995 l 623 995 l 449 1510 l 290 995 l 274 995 l 62 1624 q 49 1663 29 1675 q 9 1687 -7 1688 l -7 1688 l -7 1708 q 13 1707 43 1706 q 72 1705 100 1705 l 100 1705 q 133 1705 162 1706 q 190 1707 208 1708 l 208 1708 l 208 1688 q 182 1686 171 1678 q 159 1670 160 1653 q 160 1635 170 1604 l 170 1604 l 316 1158 l 438 1545 l 411 1624 q 398 1663 382 1675 q 366 1687 352 1688 l 352 1688 l 352 1708 q 370 1707 397 1706 q 424 1705 449 1705 l 449 1705 q 488 1705 522 1706 q 556 1707 577 1708 l 577 1708 l 577 1688 q 547 1687 530 1682 q 512 1677 510 1660 q 507 1643 519 1604 l 519 1604 l 663 1159 l 786 1546 q 804 1601 803 1632 q 801 1662 780 1675 q 759 1687 717 1688 l 717 1688 l 717 1708 q 746 1707 776 1706 q 806 1705 832 1705 q 858 1705 875 1706 q 892 1707 907 1708"},"X":{"ha":634,"x_min":16,"x_max":627,"o":"m 244 1708 l 244 1708 l 244 1687 q 194 1687 183 1677 q 172 1666 186 1643 l 186 1643 l 342 1405 l 440 1552 q 476 1606 482 1635 q 488 1664 468 1676 q 448 1687 406 1688 l 406 1688 l 406 1708 q 425 1707 445 1707 q 465 1706 485 1706 q 504 1705 521 1705 l 521 1705 q 547 1705 569 1706 q 591 1707 606 1708 l 606 1708 l 606 1688 q 575 1684 548 1661 q 521 1637 493 1596 l 493 1596 l 353 1387 l 560 1071 q 579 1042 592 1033 q 605 1023 627 1021 l 627 1021 l 627 1000 q 614 1001 591 1003 q 567 1004 541 1004 l 541 1004 q 501 1004 461 1003 q 420 1001 400 1000 l 400 1000 l 400 1021 q 450 1021 464 1027 l 464 1027 q 468 1029 470 1032 l 470 1032 q 474 1039 464 1055 l 464 1055 l 293 1317 l 185 1156 q 149 1102 148 1073 q 146 1044 170 1033 q 194 1021 236 1020 l 236 1020 l 236 1000 q 222 1001 204 1002 q 186 1002 168 1003 q 149 1003 132 1003 l 132 1003 l 101 1003 q 76 1003 54 1003 q 31 1002 16 1000 l 16 1000 l 16 1020 q 47 1025 74 1048 q 101 1071 129 1112 l 129 1112 l 280 1337 l 84 1637 q 65 1666 53 1676 q 40 1686 17 1687 l 17 1687 l 17 1708 q 30 1707 54 1706 q 78 1704 103 1704 l 103 1704 q 144 1704 180 1706 q 216 1707 244 1708"},"Y":{"ha":591,"x_min":-3,"x_max":588,"o":"m 588 1708 l 588 1708 l 588 1688 q 569 1684 550 1664 q 531 1643 508 1599 l 508 1599 l 351 1288 l 351 1106 q 351 1070 357 1052 q 363 1034 381 1028 q 398 1022 432 1020 l 432 1020 l 432 1000 q 409 1002 375 1003 q 340 1003 305 1003 l 305 1003 q 266 1003 232 1003 q 198 1002 177 1000 l 177 1000 l 177 1020 q 211 1022 229 1028 q 246 1034 252 1052 q 258 1070 258 1106 l 258 1106 l 258 1256 l 55 1631 q 35 1668 22 1678 q 8 1687 -3 1687 l -3 1687 l -3 1708 q 17 1707 39 1706 q 60 1705 85 1705 l 85 1705 q 118 1705 156 1706 q 193 1706 225 1708 l 225 1708 l 225 1687 q 200 1687 181 1681 q 162 1675 156 1659 q 150 1643 165 1614 l 165 1614 l 331 1295 l 459 1549 q 487 1604 487 1634 q 486 1664 463 1676 q 440 1687 398 1688 l 398 1688 l 398 1708 q 427 1707 457 1706 q 487 1705 513 1705 q 539 1705 556 1706 q 573 1707 588 1708"},"Z":{"ha":594,"x_min":42,"x_max":550,"o":"m 550 1708 l 550 1708 l 550 1688 l 151 1023 l 347 1023 q 394 1023 424 1033 q 453 1043 471 1065 q 488 1086 497 1122 q 506 1158 511 1210 l 511 1210 l 534 1210 q 531 1179 531 1128 l 531 1128 q 531 1109 533 1074 q 534 1038 538 1000 l 538 1000 q 501 1002 457 1003 q 413 1003 370 1003 l 370 1003 l 289 1003 q 230 1003 165 1003 q 99 1002 42 1000 l 42 1000 l 42 1020 l 444 1685 l 249 1685 q 202 1685 173 1675 q 143 1665 126 1644 q 108 1622 99 1586 q 90 1550 85 1498 l 85 1498 l 62 1498 q 64 1514 65 1535 q 65 1556 65 1580 l 65 1580 q 65 1599 64 1635 q 62 1670 58 1708 l 58 1708 q 95 1707 139 1706 q 183 1705 227 1705 l 227 1705 l 307 1705 q 364 1705 430 1706 q 495 1706 550 1708"},"a":{"ha":498,"x_min":39,"x_max":497,"o":"m 171 993 l 171 993 q 130 993 100 1009 q 70 1024 55 1052 q 39 1080 39 1117 l 39 1117 q 39 1161 60 1189 q 80 1217 112 1234 q 144 1251 180 1263 q 215 1274 247 1285 q 279 1295 300 1309 q 320 1323 320 1346 l 320 1346 l 320 1408 q 320 1450 308 1472 q 295 1494 274 1502 q 253 1509 227 1509 l 227 1509 q 202 1509 174 1502 q 145 1495 128 1473 l 128 1473 q 147 1469 161 1453 q 175 1437 175 1412 l 175 1412 q 175 1387 159 1373 q 143 1358 118 1358 l 118 1358 q 89 1358 76 1377 q 62 1395 62 1418 l 62 1418 q 62 1444 75 1460 q 88 1476 108 1490 l 108 1490 q 131 1506 168 1518 q 204 1529 250 1529 l 250 1529 q 291 1529 320 1520 q 349 1510 368 1492 l 368 1492 q 394 1468 402 1434 q 410 1399 410 1351 l 410 1351 l 410 1073 q 410 1048 418 1037 q 425 1026 441 1026 l 441 1026 q 452 1026 462 1031 q 472 1036 486 1047 l 486 1047 l 497 1030 q 476 1014 457 1004 q 438 993 406 993 l 406 993 q 377 993 358 1003 q 339 1013 330 1033 q 320 1052 320 1082 l 320 1082 q 293 1037 256 1015 q 218 993 171 993 m 207 1033 l 207 1033 q 240 1033 269 1052 q 297 1071 320 1109 l 320 1109 l 320 1305 q 308 1288 285 1277 q 262 1265 235 1254 q 208 1242 184 1227 q 159 1211 143 1186 q 127 1161 127 1121 l 127 1121 q 127 1081 149 1057 q 170 1033 207 1033"},"b":{"ha":563,"x_min":4,"x_max":516,"o":"m 326 1529 l 326 1529 q 408 1529 462 1462 q 516 1394 516 1257 l 516 1257 q 516 1167 486 1107 q 455 1046 404 1016 q 353 986 293 986 l 293 986 q 243 986 197 1015 l 197 1015 q 176 1027 161 1044 l 161 1044 q 152 1037 144 1030 l 144 1030 q 130 1018 117 1007 q 104 996 90 984 l 90 984 l 73 991 q 77 1005 79 1020 q 80 1034 80 1049 l 80 1049 l 80 1663 q 80 1708 64 1730 q 48 1751 4 1751 l 4 1751 l 4 1772 q 36 1769 66 1769 l 66 1769 q 95 1769 122 1773 q 148 1776 170 1783 l 170 1783 l 170 1422 q 185 1457 211 1482 l 211 1482 q 259 1529 326 1529 m 170 1376 l 170 1376 l 170 1058 q 187 1040 209 1029 l 209 1029 q 246 1009 285 1009 l 285 1009 q 352 1009 386 1070 q 419 1130 419 1257 l 419 1257 q 419 1338 406 1392 q 393 1446 366 1473 q 339 1499 297 1499 l 297 1499 q 251 1499 212 1458 l 212 1458 q 183 1427 170 1376"},"c":{"ha":486,"x_min":46,"x_max":451,"o":"m 279 1529 l 279 1529 q 311 1529 341 1521 q 371 1513 395 1497 l 395 1497 q 418 1482 430 1463 q 442 1443 442 1420 l 442 1420 q 442 1393 427 1379 q 412 1364 389 1364 l 389 1364 q 367 1364 351 1377 q 334 1390 334 1414 l 334 1414 q 334 1437 347 1451 q 359 1465 376 1469 l 376 1469 q 366 1487 341 1499 q 315 1511 286 1511 l 286 1511 q 261 1511 236 1499 q 211 1487 190 1460 q 169 1432 156 1385 q 143 1337 143 1266 l 143 1266 q 143 1178 163 1126 q 183 1074 216 1052 q 248 1029 287 1029 l 287 1029 q 313 1029 340 1039 q 367 1049 391 1072 q 415 1094 432 1132 l 432 1132 l 451 1125 q 441 1093 418 1061 q 395 1028 358 1007 q 321 986 267 986 l 267 986 q 205 986 155 1018 q 105 1050 76 1110 q 46 1169 46 1251 l 46 1251 q 46 1333 76 1396 q 105 1458 158 1494 q 211 1529 279 1529"},"d":{"ha":581,"x_min":48,"x_max":560,"o":"m 484 1784 l 484 1784 l 484 1109 q 484 1064 501 1043 q 517 1021 560 1021 l 560 1021 l 560 1000 q 529 1003 498 1003 l 498 1003 q 469 1003 443 1000 q 416 997 394 989 l 394 989 l 394 1077 q 382 1048 362 1027 l 362 1027 q 321 986 252 986 l 252 986 q 190 986 144 1016 q 97 1046 73 1106 q 48 1166 48 1257 q 48 1348 80 1409 q 111 1469 163 1499 q 214 1529 274 1529 l 274 1529 q 318 1529 357 1508 l 357 1508 q 380 1495 394 1471 l 394 1471 l 394 1664 q 394 1709 378 1731 q 362 1752 318 1752 l 318 1752 l 318 1773 q 350 1770 380 1770 l 380 1770 q 409 1770 436 1774 q 462 1777 484 1784 m 394 1131 l 394 1429 q 380 1469 352 1487 l 352 1487 q 322 1506 282 1506 l 282 1506 q 223 1506 184 1445 q 144 1384 145 1257 l 145 1257 q 145 1176 161 1123 q 176 1069 207 1043 q 237 1016 281 1016 l 281 1016 q 323 1016 357 1052 l 357 1052 q 384 1081 394 1131 l 394 1131"},"e":{"ha":506,"x_min":46,"x_max":463,"o":"m 272 1529 l 272 1529 q 360 1529 410 1476 q 459 1422 459 1309 l 459 1309 l 146 1309 q 145 1296 144 1281 l 144 1281 q 143 1263 143 1245 l 143 1245 q 143 1177 165 1128 q 187 1079 223 1054 q 258 1028 296 1028 l 296 1028 q 326 1028 353 1038 q 380 1047 403 1069 q 426 1091 443 1128 l 443 1128 l 463 1120 q 452 1087 427 1056 q 402 1025 364 1006 q 326 986 276 986 l 276 986 q 204 986 153 1019 q 101 1052 74 1111 q 46 1169 46 1245 l 46 1245 q 46 1333 74 1397 q 102 1460 153 1495 q 204 1529 272 1529 m 145 1328 l 145 1328 l 363 1328 q 365 1377 355 1419 q 345 1460 324 1485 q 302 1510 268 1510 l 268 1510 q 222 1510 187 1464 l 187 1464 q 153 1420 145 1328"},"f":{"ha":332,"x_min":26,"x_max":394,"o":"m 276 1782 l 276 1782 q 304 1782 326 1775 q 347 1767 363 1755 l 363 1755 q 378 1743 386 1727 q 394 1711 394 1693 l 394 1693 q 394 1670 379 1655 q 364 1640 341 1640 l 341 1640 q 319 1640 303 1655 q 286 1669 286 1694 l 286 1694 q 286 1715 298 1728 q 309 1741 328 1745 l 328 1745 q 325 1754 313 1761 q 300 1767 279 1767 l 279 1767 q 256 1767 240 1757 q 223 1747 214 1730 l 214 1730 q 202 1709 199 1668 q 196 1626 196 1540 l 196 1540 l 196 1514 l 303 1514 l 303 1494 l 196 1494 l 196 1103 q 196 1054 225 1038 q 253 1021 302 1021 l 302 1021 l 302 1000 q 279 1001 237 1003 q 195 1004 148 1004 l 148 1004 q 114 1004 81 1003 q 47 1001 30 1000 l 30 1000 l 30 1021 q 71 1021 89 1036 q 106 1051 106 1093 l 106 1093 l 106 1494 l 26 1494 l 26 1514 l 106 1514 q 106 1573 111 1613 q 116 1653 127 1682 q 138 1710 157 1732 l 157 1732 q 177 1755 208 1769 q 239 1782 276 1782"},"g":{"ha":528,"x_min":9,"x_max":521,"o":"m 213 812 l 213 812 q 160 812 113 823 q 66 834 38 858 q 9 881 9 917 l 9 917 q 9 952 37 977 q 65 1002 113 1015 l 113 1015 l 119 999 q 97 992 84 971 q 71 950 71 924 l 71 924 q 71 878 114 854 q 156 829 224 829 l 224 829 q 269 829 312 841 q 355 852 383 879 q 411 906 411 950 l 411 950 q 411 983 388 1005 q 364 1026 295 1026 l 295 1026 l 221 1026 q 189 1026 159 1031 q 129 1036 110 1052 q 91 1068 91 1101 l 91 1101 q 91 1135 119 1167 l 119 1167 q 140 1190 188 1215 l 188 1215 q 156 1218 129 1230 l 129 1230 q 89 1246 66 1281 q 43 1316 43 1371 q 43 1426 66 1461 q 89 1496 129 1513 q 169 1529 218 1529 l 218 1529 q 268 1529 308 1513 l 308 1513 q 337 1500 357 1477 l 357 1477 q 371 1497 392 1513 l 392 1513 q 426 1539 463 1539 l 463 1539 q 489 1539 505 1525 q 521 1510 521 1481 l 521 1481 q 521 1450 505 1438 q 488 1425 471 1425 l 471 1425 q 456 1425 443 1436 q 430 1446 428 1469 l 428 1469 q 426 1489 438 1518 l 438 1518 q 409 1505 395 1492 l 395 1492 q 382 1479 370 1460 l 370 1460 q 393 1426 393 1371 l 393 1371 q 393 1316 370 1281 q 347 1246 308 1230 q 268 1213 218 1213 l 218 1213 q 218 1213 218 1213 l 218 1213 q 194 1199 175 1186 l 175 1186 q 150 1167 150 1142 l 150 1142 q 150 1110 198 1110 l 198 1110 l 323 1110 q 365 1110 401 1098 q 436 1086 458 1060 q 480 1034 480 992 l 480 992 q 480 945 450 904 q 420 863 361 838 q 301 812 213 812 m 218 1231 l 218 1231 q 256 1231 278 1261 q 299 1291 299 1371 q 299 1451 278 1481 q 256 1511 218 1511 l 218 1511 q 181 1511 159 1481 q 137 1451 137 1371 q 137 1291 159 1261 q 181 1231 218 1231"},"h":{"ha":588,"x_min":20,"x_max":573,"o":"m 186 1783 l 186 1783 l 186 1409 q 212 1477 259 1503 q 305 1529 356 1529 l 356 1529 q 394 1529 420 1519 q 445 1509 462 1491 l 462 1491 q 481 1471 489 1441 q 497 1411 497 1360 l 497 1360 l 497 1093 q 497 1051 515 1036 q 532 1021 573 1021 l 573 1021 l 573 1000 q 556 1001 521 1003 q 486 1004 453 1004 l 453 1004 q 420 1004 389 1003 q 357 1001 341 1000 l 341 1000 l 341 1021 q 377 1021 392 1036 q 407 1051 407 1093 l 407 1093 l 407 1382 q 407 1413 402 1439 q 397 1465 380 1481 q 362 1497 326 1497 l 326 1497 q 285 1497 254 1474 q 222 1451 204 1410 q 186 1369 186 1316 l 186 1316 l 186 1093 q 186 1051 201 1036 q 216 1021 252 1021 l 252 1021 l 252 1000 q 236 1001 205 1003 q 173 1004 140 1004 l 140 1004 q 107 1004 72 1003 q 37 1001 20 1000 l 20 1000 l 20 1021 q 61 1021 79 1036 q 96 1051 96 1093 l 96 1093 l 96 1663 q 96 1708 80 1730 q 64 1751 20 1751 l 20 1751 l 20 1772 q 52 1769 82 1769 l 82 1769 q 111 1769 138 1773 q 164 1776 186 1783"},"i":{"ha":293,"x_min":29,"x_max":271,"o":"m 143 1765 l 143 1765 q 169 1765 188 1746 q 207 1727 207 1701 l 207 1701 q 207 1675 188 1656 q 169 1637 143 1637 l 143 1637 q 117 1637 98 1656 q 79 1675 79 1701 l 79 1701 q 79 1727 98 1746 q 117 1765 143 1765 m 195 1526 l 195 1526 l 195 1093 q 195 1051 213 1036 q 230 1021 271 1021 l 271 1021 l 271 1000 q 254 1001 220 1003 q 185 1004 150 1004 l 150 1004 q 116 1004 81 1003 q 46 1001 29 1000 l 29 1000 l 29 1021 q 70 1021 88 1036 q 105 1051 105 1093 l 105 1093 l 105 1406 q 105 1451 89 1473 q 73 1494 29 1494 l 29 1494 l 29 1515 q 61 1512 91 1512 l 91 1512 q 120 1512 147 1516 q 173 1519 195 1526"},"j":{"ha":267,"x_min":-26,"x_max":198,"o":"m -26 812 l -26 812 l -26 827 q 36 830 67 881 q 98 931 98 1019 l 98 1019 l 98 1406 q 98 1451 82 1473 q 66 1494 22 1494 l 22 1494 l 22 1515 q 54 1512 84 1512 l 84 1512 q 113 1512 140 1516 q 166 1519 188 1526 l 188 1526 l 188 1115 q 188 1065 181 1020 q 174 975 158 938 q 142 901 116 873 l 116 873 q 91 846 55 829 q 18 812 -26 812 m 134 1765 l 134 1765 q 160 1765 179 1746 q 198 1727 198 1701 l 198 1701 q 198 1675 179 1656 q 160 1637 134 1637 l 134 1637 q 108 1637 89 1656 q 70 1675 70 1701 l 70 1701 q 70 1727 89 1746 q 108 1765 134 1765"},"k":{"ha":550,"x_min":20,"x_max":543,"o":"m 186 1784 l 186 1784 l 186 1288 q 215 1292 234 1301 l 234 1301 q 254 1310 272 1329 l 272 1329 l 346 1406 q 378 1439 378 1459 q 378 1478 358 1487 q 337 1495 304 1495 l 304 1495 l 304 1515 q 330 1514 363 1513 q 395 1511 417 1511 l 417 1511 q 434 1511 450 1512 q 466 1512 480 1513 q 494 1514 504 1515 l 504 1515 l 504 1495 q 479 1493 457 1482 q 435 1470 414 1448 l 414 1448 l 292 1320 l 473 1073 q 490 1050 506 1037 q 521 1024 543 1021 l 543 1021 l 543 1000 q 532 1001 509 1003 q 485 1004 462 1004 l 462 1004 q 431 1004 399 1003 q 367 1001 351 1000 l 351 1000 l 351 1021 q 371 1021 379 1031 q 387 1041 376 1055 l 376 1055 l 261 1223 q 242 1250 227 1258 l 227 1258 q 212 1265 186 1267 l 186 1267 l 186 1093 q 186 1051 201 1036 q 216 1021 252 1021 l 252 1021 l 252 1000 q 236 1001 205 1003 q 173 1004 141 1004 l 141 1004 q 107 1004 72 1003 q 37 1001 20 1000 l 20 1000 l 20 1021 q 61 1021 79 1036 q 96 1051 96 1093 l 96 1093 l 96 1664 q 96 1709 80 1731 q 64 1752 20 1752 l 20 1752 l 20 1773 q 52 1770 82 1770 l 82 1770 q 111 1770 138 1774 q 164 1777 186 1784"},"l":{"ha":286,"x_min":22,"x_max":264,"o":"m 188 1784 l 188 1784 l 188 1093 q 188 1051 206 1036 q 223 1021 264 1021 l 264 1021 l 264 1000 q 247 1001 213 1003 q 178 1004 143 1004 l 143 1004 q 109 1004 74 1003 q 39 1001 22 1000 l 22 1000 l 22 1021 q 63 1021 81 1036 q 98 1051 98 1093 l 98 1093 l 98 1664 q 98 1709 82 1731 q 66 1752 22 1752 l 22 1752 l 22 1773 q 54 1770 84 1770 l 84 1770 q 113 1770 140 1774 q 166 1777 188 1784"},"m":{"ha":888,"x_min":29,"x_max":873,"o":"m 359 1529 l 359 1529 q 394 1529 420 1519 q 446 1509 463 1491 l 463 1491 q 482 1471 489 1439 l 489 1439 q 492 1426 494 1410 l 494 1410 q 520 1478 566 1504 l 566 1504 q 612 1529 660 1529 l 660 1529 q 695 1529 721 1519 q 747 1509 764 1491 l 764 1491 q 783 1471 790 1439 q 797 1407 797 1360 l 797 1360 l 797 1093 q 797 1051 815 1036 q 832 1021 873 1021 l 873 1021 l 873 1000 q 856 1001 821 1003 q 786 1004 753 1004 q 720 1004 689 1003 q 657 1001 641 1000 l 641 1000 l 641 1021 q 677 1021 692 1036 q 707 1051 707 1093 l 707 1093 l 707 1382 q 707 1413 703 1439 q 699 1465 683 1481 q 667 1497 631 1497 l 631 1497 q 592 1497 562 1473 q 531 1449 514 1408 q 496 1367 496 1316 l 496 1316 l 496 1093 q 496 1051 514 1036 q 531 1021 572 1021 l 572 1021 l 572 1000 q 555 1001 520 1003 q 485 1004 452 1004 q 419 1004 388 1003 q 356 1001 340 1000 l 340 1000 l 340 1021 q 376 1021 391 1036 q 406 1051 406 1093 l 406 1093 l 406 1382 q 406 1413 402 1439 q 398 1465 382 1481 q 366 1497 330 1497 l 330 1497 q 291 1497 261 1473 q 230 1449 213 1408 q 195 1366 195 1315 l 195 1315 l 195 1093 q 195 1051 210 1036 q 225 1021 261 1021 l 261 1021 l 261 1000 q 245 1001 214 1003 q 182 1004 149 1004 q 116 1004 81 1003 q 46 1001 29 1000 l 29 1000 l 29 1021 q 70 1021 88 1036 q 105 1051 105 1093 l 105 1093 l 105 1406 q 105 1451 89 1473 q 73 1494 29 1494 l 29 1494 l 29 1515 q 61 1512 91 1512 l 91 1512 q 120 1512 147 1516 q 173 1519 195 1526 l 195 1526 l 195 1408 q 221 1473 266 1501 q 311 1529 359 1529"},"n":{"ha":597,"x_min":29,"x_max":582,"o":"m 365 1529 l 365 1529 q 403 1529 429 1519 q 454 1509 471 1491 l 471 1491 q 490 1471 498 1441 q 506 1411 506 1360 l 506 1360 l 506 1093 q 506 1051 524 1036 q 541 1021 582 1021 l 582 1021 l 582 1000 q 565 1001 530 1003 q 495 1004 462 1004 l 462 1004 q 429 1004 398 1003 q 366 1001 350 1000 l 350 1000 l 350 1021 q 386 1021 401 1036 q 416 1051 416 1093 l 416 1093 l 416 1382 q 416 1413 411 1439 q 406 1465 389 1481 q 371 1497 335 1497 l 335 1497 q 293 1497 262 1473 q 230 1449 213 1408 q 195 1366 195 1315 l 195 1315 l 195 1093 q 195 1051 210 1036 q 225 1021 261 1021 l 261 1021 l 261 1000 q 245 1001 214 1003 q 182 1004 149 1004 l 149 1004 q 116 1004 81 1003 q 46 1001 29 1000 l 29 1000 l 29 1021 q 70 1021 88 1036 q 105 1051 105 1093 l 105 1093 l 105 1406 q 105 1451 89 1473 q 73 1494 29 1494 l 29 1494 l 29 1515 q 61 1512 91 1512 l 91 1512 q 120 1512 147 1516 q 173 1519 195 1526 l 195 1526 l 195 1408 q 221 1476 268 1503 q 314 1529 365 1529"},"o":{"ha":548,"x_min":47,"x_max":501,"o":"m 274 1529 l 274 1529 q 338 1529 389 1501 q 440 1473 471 1413 q 501 1353 501 1257 l 501 1257 q 501 1161 471 1102 q 440 1042 389 1014 q 338 986 274 986 l 274 986 q 211 986 160 1014 q 108 1042 78 1102 q 47 1161 47 1257 l 47 1257 q 47 1353 78 1413 q 108 1473 160 1501 q 211 1529 274 1529 m 274 1509 l 274 1509 q 217 1509 181 1450 q 144 1391 144 1257 l 144 1257 q 144 1123 181 1065 q 217 1006 274 1006 l 274 1006 q 331 1006 368 1065 q 404 1123 404 1257 l 404 1257 q 404 1391 368 1450 q 331 1509 274 1509"},"p":{"ha":581,"x_min":22,"x_max":534,"o":"m 188 1526 l 188 1526 l 188 1422 q 203 1457 230 1482 l 230 1482 q 279 1529 348 1529 l 348 1529 q 401 1529 443 1501 q 485 1472 510 1417 q 534 1362 534 1281 l 534 1281 q 534 1227 521 1175 q 508 1122 481 1080 q 453 1037 410 1012 q 366 986 305 986 l 305 986 q 258 986 224 1008 l 224 1008 q 201 1022 188 1041 l 188 1041 l 188 912 q 188 869 214 855 q 239 840 284 840 l 284 840 l 284 819 q 262 820 223 822 q 184 823 140 823 l 140 823 q 109 823 79 822 q 48 820 32 819 l 32 819 l 32 840 q 68 840 83 853 q 98 866 98 902 l 98 902 l 98 1406 q 98 1451 82 1473 q 66 1494 22 1494 l 22 1494 l 22 1515 q 54 1512 84 1512 l 84 1512 q 113 1512 140 1516 q 166 1519 188 1526 m 188 1373 l 188 1373 l 188 1073 q 202 1046 228 1028 l 228 1028 q 254 1009 294 1009 l 294 1009 q 350 1009 381 1044 q 412 1079 425 1138 q 437 1196 437 1267 l 437 1267 q 437 1347 424 1398 q 411 1449 385 1474 q 359 1499 321 1499 l 321 1499 q 272 1499 232 1459 l 232 1459 q 202 1428 188 1373"},"q":{"ha":563,"x_min":47,"x_max":549,"o":"m 261 1529 l 261 1529 q 323 1529 361 1503 l 361 1503 q 385 1486 402 1456 l 402 1456 q 411 1465 420 1475 l 420 1475 q 433 1489 447 1503 q 460 1517 473 1531 l 473 1531 l 490 1524 q 486 1511 485 1496 q 483 1481 483 1466 l 483 1466 l 483 902 q 483 866 498 853 q 513 840 549 840 l 549 840 l 549 819 q 533 820 503 822 q 473 823 441 823 l 441 823 q 398 823 359 822 q 319 820 297 819 l 297 819 l 297 840 q 342 840 368 855 q 393 869 393 912 l 393 912 l 393 1082 q 381 1053 361 1033 l 361 1033 q 316 986 253 986 l 253 986 q 196 986 149 1016 q 102 1045 75 1106 q 47 1166 47 1257 q 47 1348 76 1409 q 104 1469 153 1499 q 201 1529 261 1529 m 393 1130 l 393 1130 l 393 1440 q 375 1470 347 1487 l 347 1487 q 313 1506 269 1506 l 269 1506 q 210 1506 177 1445 q 144 1384 144 1257 l 144 1257 q 144 1177 160 1123 q 176 1069 207 1043 q 238 1016 282 1016 l 282 1016 q 324 1016 359 1057 l 359 1057 q 383 1085 393 1130"},"r":{"ha":445,"x_min":29,"x_max":431,"o":"m 340 1529 l 340 1529 q 367 1529 388 1518 q 408 1507 420 1490 q 431 1472 431 1450 l 431 1450 q 431 1425 416 1406 q 400 1387 374 1387 l 374 1387 q 353 1387 337 1401 q 321 1414 321 1439 l 321 1439 q 321 1458 332 1472 q 342 1485 355 1493 l 355 1493 q 348 1503 334 1503 l 334 1503 q 303 1503 277 1485 q 251 1466 233 1437 q 215 1408 205 1376 q 195 1343 195 1315 l 195 1315 l 195 1103 q 195 1054 224 1038 q 252 1021 301 1021 l 301 1021 l 301 1000 q 278 1001 236 1003 q 194 1004 147 1004 l 147 1004 q 113 1004 80 1003 q 46 1001 29 1000 l 29 1000 l 29 1021 q 70 1021 88 1036 q 105 1051 105 1093 l 105 1093 l 105 1406 q 105 1451 89 1473 q 73 1494 29 1494 l 29 1494 l 29 1515 q 61 1512 91 1512 l 91 1512 q 120 1512 147 1516 q 173 1519 195 1526 l 195 1526 l 195 1401 q 206 1430 227 1460 q 247 1489 276 1509 q 305 1529 340 1529"},"s":{"ha":447,"x_min":56,"x_max":400,"o":"m 208 1529 l 208 1529 q 248 1529 276 1516 q 304 1503 317 1492 l 317 1492 q 329 1482 338 1484 l 338 1484 q 353 1489 357 1528 l 357 1528 l 380 1528 q 378 1500 377 1462 q 376 1423 376 1358 l 376 1358 l 353 1358 q 347 1395 333 1430 q 318 1465 290 1488 q 262 1510 217 1510 l 217 1510 q 182 1510 159 1491 q 135 1471 135 1433 l 135 1433 q 135 1403 153 1382 q 171 1360 200 1342 q 229 1323 263 1301 l 263 1301 q 301 1277 332 1252 q 363 1227 382 1197 q 400 1167 400 1126 l 400 1126 q 400 1080 376 1049 q 352 1018 314 1002 q 275 986 229 986 l 229 986 q 207 986 188 990 q 168 993 150 1000 l 150 1000 q 140 1005 130 1012 q 119 1019 109 1027 q 99 1035 91 1027 q 83 1018 79 993 l 79 993 l 56 993 q 58 1025 59 1071 q 60 1117 60 1193 l 60 1193 l 83 1193 q 90 1137 103 1095 q 116 1053 144 1030 q 172 1006 222 1006 l 222 1006 q 242 1006 263 1015 q 283 1024 297 1045 q 311 1066 311 1101 l 311 1101 q 311 1145 279 1173 q 247 1201 198 1232 l 198 1232 q 162 1255 131 1278 q 99 1301 80 1330 q 60 1359 60 1400 l 60 1400 q 60 1445 81 1474 q 101 1502 135 1516 q 169 1529 208 1529"},"t":{"ha":354,"x_min":4,"x_max":364,"o":"m 190 1681 l 190 1681 l 190 1514 l 338 1514 l 338 1494 l 190 1494 l 190 1107 q 190 1060 207 1041 q 224 1022 254 1022 l 254 1022 q 284 1022 306 1047 q 328 1071 344 1129 l 344 1129 l 364 1124 q 354 1066 325 1026 q 295 986 234 986 l 234 986 q 200 986 178 995 q 156 1003 139 1019 l 139 1019 q 117 1042 109 1074 q 100 1106 100 1159 l 100 1159 l 100 1494 l 4 1494 l 4 1514 l 100 1514 l 100 1667 q 125 1668 148 1671 q 171 1674 190 1681"},"u":{"ha":581,"x_min":16,"x_max":559,"o":"m 483 1526 l 483 1526 l 483 1108 q 483 1063 500 1042 q 516 1020 559 1020 l 559 1020 l 559 999 q 528 1002 497 1002 l 497 1002 q 468 1002 442 999 q 415 996 393 988 l 393 988 l 393 1106 q 368 1041 323 1014 q 277 986 229 986 l 229 986 q 194 986 168 996 q 142 1006 125 1024 l 125 1024 q 106 1044 99 1076 q 92 1108 92 1155 l 92 1155 l 92 1406 q 92 1451 76 1473 q 60 1494 16 1494 l 16 1494 l 16 1515 q 48 1512 78 1512 l 78 1512 q 107 1512 134 1516 q 160 1519 182 1526 l 182 1526 l 182 1133 q 182 1102 186 1076 q 190 1050 206 1034 q 222 1018 258 1018 l 258 1018 q 297 1018 328 1042 q 358 1066 376 1107 q 393 1148 393 1199 l 393 1199 l 393 1406 q 393 1451 377 1473 q 361 1494 317 1494 l 317 1494 l 317 1515 q 349 1512 379 1512 l 379 1512 q 408 1512 435 1516 q 461 1519 483 1526"},"v":{"ha":489,"x_min":-2,"x_max":486,"o":"m 486 1515 l 486 1515 l 486 1495 q 467 1493 451 1478 q 435 1463 421 1425 l 421 1425 l 257 995 l 240 995 l 56 1438 q 40 1477 25 1486 q 9 1494 -2 1494 l -2 1494 l -2 1515 q 18 1514 40 1513 q 61 1511 86 1511 l 86 1511 q 117 1511 152 1512 q 186 1513 216 1515 l 216 1515 l 216 1494 q 191 1494 172 1491 q 152 1487 147 1471 q 141 1455 156 1416 l 156 1416 l 279 1112 l 389 1401 q 402 1434 400 1454 q 397 1473 380 1483 q 362 1493 326 1495 l 326 1495 l 326 1515 q 344 1514 357 1514 q 370 1513 383 1513 q 395 1512 410 1512 l 410 1512 q 433 1512 452 1513 q 470 1514 486 1515"},"w":{"ha":770,"x_min":0,"x_max":767,"o":"m 218 1515 l 218 1515 l 218 1494 q 193 1494 174 1491 q 155 1487 149 1470 q 143 1453 158 1410 l 158 1410 l 258 1122 l 402 1519 l 425 1519 l 578 1115 l 672 1401 q 683 1435 681 1455 q 678 1474 661 1484 q 643 1493 607 1495 l 607 1495 l 607 1515 q 625 1514 638 1514 q 651 1513 664 1513 q 676 1512 691 1512 l 691 1512 q 714 1512 733 1513 q 751 1514 767 1515 l 767 1515 l 767 1495 q 748 1493 732 1479 q 715 1464 702 1425 l 702 1425 l 557 995 l 540 995 l 382 1397 l 239 995 l 222 995 l 58 1438 q 42 1478 27 1486 q 11 1494 0 1494 l 0 1494 l 0 1515 q 20 1512 42 1511 q 63 1509 88 1509 l 88 1509 q 119 1509 154 1511 q 188 1513 218 1515"},"x":{"ha":519,"x_min":21,"x_max":506,"o":"m 212 1515 l 212 1515 l 212 1494 q 193 1494 180 1485 q 167 1476 177 1460 l 177 1460 l 284 1304 l 353 1401 q 375 1432 381 1452 q 387 1472 375 1483 q 362 1493 326 1495 l 326 1495 l 326 1515 q 352 1514 370 1513 q 387 1512 410 1512 q 433 1512 452 1513 q 470 1514 486 1515 l 486 1515 l 486 1495 q 467 1493 445 1476 q 422 1458 398 1425 l 398 1425 l 297 1285 l 444 1071 q 461 1046 474 1036 q 487 1025 506 1021 l 506 1021 l 506 1000 q 496 1001 476 1003 q 455 1004 435 1004 l 435 1004 q 404 1004 369 1003 q 333 1001 317 1000 l 317 1000 l 317 1021 q 337 1021 350 1031 l 350 1031 q 356 1035 357 1040 l 357 1040 q 358 1046 352 1055 l 352 1055 l 238 1221 l 165 1126 q 139 1092 138 1069 q 136 1046 156 1035 q 176 1023 211 1020 l 211 1020 l 211 1000 q 194 1001 173 1002 q 152 1002 133 1003 q 113 1003 97 1003 l 97 1003 q 74 1003 56 1003 q 37 1002 21 1000 l 21 1000 l 21 1020 q 40 1022 61 1038 q 81 1053 109 1090 l 109 1090 l 224 1241 l 85 1444 q 65 1473 53 1483 q 41 1492 23 1494 l 23 1494 l 23 1515 q 33 1514 54 1513 q 75 1511 94 1511 l 94 1511 q 126 1511 161 1513 q 196 1514 212 1515"},"y":{"ha":504,"x_min":-4,"x_max":494,"o":"m 494 1515 l 494 1515 l 494 1495 q 475 1493 459 1478 q 443 1463 429 1425 l 429 1425 l 265 995 l 231 908 q 221 883 211 866 q 200 849 188 838 l 188 838 q 172 823 150 818 q 128 812 110 812 l 110 812 q 91 812 76 819 q 60 826 51 840 q 42 853 42 872 l 42 872 q 42 896 56 911 q 70 925 95 925 l 95 925 q 116 925 131 913 q 146 901 146 878 l 146 878 q 146 861 138 850 q 130 839 119 833 l 119 833 q 121 832 123 832 l 123 832 l 125 832 q 152 832 173 851 q 194 869 210 910 l 210 910 l 245 1001 l 64 1438 q 45 1477 27 1486 q 8 1494 -4 1494 l -4 1494 l -4 1515 q 18 1512 42 1511 q 66 1509 94 1509 l 94 1509 q 125 1509 160 1511 q 194 1513 224 1515 l 224 1515 l 224 1494 q 199 1494 180 1491 q 160 1487 155 1470 q 150 1452 167 1410 l 167 1410 l 287 1112 l 398 1401 q 411 1434 409 1454 q 406 1473 388 1483 q 370 1493 334 1495 l 334 1495 l 334 1515 q 352 1514 365 1514 q 378 1513 391 1513 q 403 1512 418 1512 l 418 1512 q 441 1512 460 1513 q 478 1514 494 1515"},"z":{"ha":476,"x_min":38,"x_max":439,"o":"m 439 1520 l 439 1520 l 150 1015 l 260 1015 q 300 1015 330 1031 q 359 1047 377 1083 q 395 1118 399 1176 l 399 1176 l 422 1176 q 422 1112 423 1068 q 424 1024 426 996 l 426 996 q 382 998 335 999 q 287 1000 240 1000 l 240 1000 q 190 1000 138 999 q 86 997 38 995 l 38 995 l 327 1500 l 217 1500 q 173 1500 144 1484 q 114 1468 99 1433 q 83 1397 78 1339 l 78 1339 l 55 1339 q 55 1404 54 1448 q 53 1491 51 1519 l 51 1519 q 95 1517 143 1516 q 190 1515 237 1515 l 237 1515 q 287 1515 339 1517 q 391 1518 439 1520"},"&":{"ha":837,"x_min":54,"x_max":817,"o":"m 307 1702 l 307 1702 q 345 1702 370 1694 q 395 1685 411 1672 l 411 1672 q 424 1662 432 1650 q 440 1638 444 1626 q 448 1614 448 1603 l 448 1603 q 448 1578 431 1564 q 413 1550 392 1550 l 392 1550 q 372 1550 356 1563 q 340 1576 340 1600 l 340 1600 q 340 1622 355 1638 q 370 1653 393 1655 l 393 1655 q 389 1668 369 1678 q 348 1687 317 1687 l 317 1687 q 266 1687 234 1657 q 201 1626 201 1568 l 201 1568 q 201 1540 212 1511 q 222 1482 252 1454 l 252 1454 q 269 1457 287 1459 q 305 1460 314 1460 l 314 1460 q 332 1460 343 1454 q 354 1448 354 1437 l 354 1437 q 354 1428 347 1423 q 339 1418 326 1418 l 326 1418 q 307 1418 286 1427 q 265 1435 253 1440 l 253 1440 q 195 1423 159 1385 q 123 1346 123 1276 l 123 1276 q 123 1207 159 1159 q 195 1111 256 1086 q 316 1060 391 1060 l 391 1060 q 444 1060 492 1073 q 539 1085 576 1109 q 612 1133 633 1167 q 654 1200 654 1243 l 654 1243 q 654 1262 646 1292 q 638 1321 613 1350 l 613 1350 q 592 1373 553 1388 l 553 1388 q 526 1380 501 1372 l 501 1372 q 462 1359 438 1350 l 438 1350 q 401 1336 376 1316 q 350 1295 350 1263 l 350 1263 q 350 1237 365 1219 q 380 1201 402 1192 q 423 1183 442 1183 l 442 1183 q 451 1183 465 1186 q 478 1188 489 1193 q 500 1198 502 1205 l 502 1205 q 486 1208 471 1220 q 455 1231 455 1256 l 455 1256 q 455 1280 471 1294 q 487 1308 510 1308 l 510 1308 q 534 1308 549 1293 q 563 1278 563 1254 l 563 1254 q 563 1226 545 1207 q 526 1187 499 1178 q 471 1168 444 1168 l 444 1168 q 416 1168 387 1180 q 358 1192 339 1218 q 320 1243 320 1285 l 320 1285 q 320 1320 336 1347 q 351 1374 382 1395 q 413 1416 458 1431 l 458 1431 q 488 1441 531 1453 q 574 1465 620 1479 q 665 1493 702 1510 l 702 1510 q 752 1533 770 1557 q 788 1581 788 1606 l 788 1606 q 788 1635 772 1658 q 756 1680 730 1694 q 703 1707 672 1707 l 672 1707 q 660 1707 652 1705 q 644 1703 642 1698 l 642 1698 q 656 1691 663 1678 q 670 1665 670 1652 l 670 1652 q 670 1631 654 1617 q 637 1603 614 1603 l 614 1603 q 595 1603 578 1616 q 561 1628 561 1653 l 561 1653 q 561 1679 579 1694 q 596 1709 622 1716 q 647 1722 671 1722 l 671 1722 q 733 1722 775 1687 q 817 1651 817 1587 l 817 1587 q 817 1553 805 1527 q 792 1500 771 1480 q 749 1460 722 1447 l 722 1447 q 699 1436 662 1423 q 624 1410 582 1397 l 582 1397 q 578 1396 574 1395 l 574 1395 q 627 1373 652 1334 l 652 1334 q 683 1285 683 1225 q 683 1165 647 1110 q 611 1055 543 1021 q 475 986 378 986 l 378 986 q 313 986 255 1003 q 196 1020 151 1053 q 106 1085 80 1131 q 54 1177 54 1235 l 54 1235 q 54 1289 75 1328 q 96 1366 127 1391 q 158 1416 189 1430 q 220 1443 239 1448 l 239 1448 q 206 1463 184 1484 q 161 1504 150 1529 q 138 1553 138 1577 q 138 1601 149 1624 q 160 1646 181 1664 q 202 1682 234 1692 q 265 1702 307 1702"},".":{"ha":252,"x_min":62,"x_max":190,"o":"m 126 1114 l 126 1114 q 152 1114 171 1095 q 190 1076 190 1050 l 190 1050 q 190 1024 171 1005 q 152 986 126 986 l 126 986 q 100 986 81 1005 q 62 1024 62 1050 l 62 1050 q 62 1076 81 1095 q 100 1114 126 1114"},",":{"ha":261,"x_min":62,"x_max":202,"o":"m 126 1114 l 126 1114 q 148 1114 162 1105 q 176 1096 185 1082 l 185 1082 q 196 1066 199 1047 q 202 1028 202 1016 l 202 1016 q 202 967 177 927 q 152 887 99 862 l 99 862 l 90 880 q 121 893 144 921 q 166 949 166 978 l 166 978 q 166 990 163 999 l 163 999 q 147 986 126 986 l 126 986 q 100 986 81 1003 q 62 1020 62 1050 l 62 1050 q 62 1078 81 1096 q 100 1114 126 1114"},"!":{"ha":262,"x_min":67,"x_max":195,"o":"m 131 1782 l 131 1782 q 150 1782 164 1769 q 177 1756 177 1726 l 177 1726 q 177 1687 172 1629 q 166 1571 159 1501 q 151 1430 146 1353 q 140 1275 140 1196 l 140 1196 l 122 1196 q 122 1275 117 1353 q 111 1430 104 1501 q 96 1571 91 1629 q 85 1687 85 1726 l 85 1726 q 85 1756 99 1769 q 112 1782 131 1782 m 131 1114 q 157 1114 176 1095 q 195 1076 195 1050 q 195 1024 176 1005 q 157 986 131 986 q 105 986 86 1005 q 67 1024 67 1050 q 67 1076 86 1095 q 105 1114 131 1114"},"?":{"ha":459,"x_min":32,"x_max":425,"o":"m 215 1782 l 215 1782 q 278 1782 325 1761 q 372 1739 399 1699 q 425 1658 425 1602 l 425 1602 q 425 1546 397 1502 q 368 1458 318 1428 q 267 1397 200 1380 l 200 1380 l 200 1234 l 180 1234 l 180 1389 q 247 1414 280 1444 q 313 1474 325 1509 q 336 1544 336 1583 l 336 1583 q 336 1678 297 1720 q 258 1762 196 1762 l 196 1762 q 172 1762 144 1755 q 115 1748 98 1726 l 98 1726 q 117 1722 129 1709 q 140 1696 140 1675 l 140 1675 q 140 1650 124 1636 q 108 1621 85 1621 l 85 1621 q 62 1621 47 1636 q 32 1651 32 1674 l 32 1674 q 32 1695 45 1714 q 58 1732 79 1746 l 79 1746 q 100 1760 134 1771 q 167 1782 215 1782 m 191 1114 l 191 1114 q 217 1114 236 1095 q 255 1076 255 1050 l 255 1050 q 255 1024 236 1005 q 217 986 191 986 l 191 986 q 165 986 146 1005 q 127 1024 127 1050 l 127 1050 q 127 1076 146 1095 q 165 1114 191 1114"},"'":{"ha":189,"x_min":59,"x_max":131,"o":"m 95 1730 l 95 1730 q 110 1730 121 1718 q 131 1706 131 1684 l 131 1684 q 131 1651 127 1623 q 123 1594 117 1559 q 110 1523 102 1468 l 102 1468 l 88 1468 q 81 1520 74 1556 q 67 1591 63 1621 q 59 1650 59 1683 l 59 1683 q 59 1705 70 1717 q 80 1729 95 1730"},"\"":{"ha":298,"x_min":59,"x_max":240,"o":"m 95 1730 l 95 1730 q 110 1730 121 1718 q 131 1706 131 1684 l 131 1684 q 131 1651 127 1623 q 123 1594 117 1559 q 110 1523 102 1468 l 102 1468 l 88 1468 q 81 1520 74 1556 q 67 1591 63 1621 q 59 1650 59 1683 l 59 1683 q 59 1705 70 1717 q 80 1729 95 1730 m 204 1730 l 204 1730 q 219 1730 230 1718 q 240 1706 240 1684 l 240 1684 q 240 1651 236 1623 q 232 1594 226 1559 q 219 1523 211 1468 l 211 1468 l 197 1468 q 190 1520 183 1556 q 176 1591 172 1621 q 168 1650 168 1683 l 168 1683 q 168 1705 179 1717 q 189 1729 204 1730"},"(":{"ha":294,"x_min":44,"x_max":278,"o":"m 264 1806 l 264 1806 l 278 1793 q 194 1695 161 1579 q 128 1462 128 1312 l 128 1312 q 128 1162 161 1046 q 194 929 278 831 l 278 831 l 264 818 q 163 910 104 1034 q 44 1157 44 1312 l 44 1312 q 44 1467 104 1591 q 163 1714 264 1806"},")":{"ha":294,"x_min":16,"x_max":250,"o":"m 16 1793 l 30 1806 q 131 1714 191 1591 q 250 1467 250 1312 l 250 1312 q 250 1157 191 1034 q 131 910 30 818 l 30 818 l 16 831 q 100 929 133 1046 q 166 1162 166 1312 l 166 1312 q 166 1462 133 1579 q 100 1695 16 1793 l 16 1793"},"-":{"ha":499,"x_min":69,"x_max":430,"o":"m 69 1298 l 430 1298 l 430 1240 l 69 1240 l 69 1298"},"+":{"ha":587,"x_min":43,"x_max":544,"o":"m 276 1606 l 312 1606 l 312 1370 l 544 1370 l 544 1340 l 312 1340 l 312 1105 l 276 1105 l 276 1340 l 43 1340 l 43 1370 l 276 1370 l 276 1606"},"=":{"ha":647,"x_min":73,"x_max":574,"o":"m 73 1440 l 574 1440 l 574 1410 l 73 1410 l 73 1440 m 73 1300 l 574 1300 l 574 1270 l 73 1270 l 73 1300"},"/":{"ha":372,"x_min":34,"x_max":339,"o":"m 306 1722 l 339 1722 l 67 986 l 34 986 l 306 1722"},"\\":{"ha":372,"x_min":33,"x_max":338,"o":"m 305 986 l 33 1722 l 66 1722 l 338 986 l 305 986"},"@":{"ha":878,"x_min":49,"x_max":844,"o":"m 532 1668 l 532 1668 q 619 1668 690 1640 q 760 1612 802 1552 q 844 1491 844 1393 l 844 1393 q 844 1309 817 1241 q 790 1173 747 1125 q 703 1077 653 1052 q 602 1026 554 1026 l 554 1026 q 514 1026 498 1043 q 482 1060 482 1085 q 482 1109 488 1132 q 494 1155 497 1166 l 497 1166 l 497 1167 q 490 1148 482 1132 l 482 1132 q 456 1078 423 1052 q 389 1026 343 1026 l 343 1026 q 305 1026 283 1042 q 260 1058 250 1086 q 240 1113 240 1147 l 240 1147 q 240 1204 261 1263 q 282 1321 317 1370 q 351 1418 393 1448 q 435 1478 478 1478 l 478 1478 q 501 1478 519 1469 q 536 1460 546 1441 l 546 1441 q 549 1434 550 1426 l 550 1426 l 558 1464 q 581 1464 605 1467 q 629 1470 648 1478 l 648 1478 l 564 1111 q 558 1089 558 1076 q 558 1062 566 1057 q 573 1051 587 1051 l 587 1051 q 616 1051 656 1074 q 696 1096 735 1140 q 773 1183 799 1247 q 824 1311 824 1394 l 824 1394 q 824 1487 784 1543 q 744 1599 678 1625 q 612 1650 533 1650 l 533 1650 q 460 1650 391 1624 q 322 1598 264 1551 q 205 1503 162 1440 q 118 1376 94 1301 q 69 1226 69 1145 l 69 1145 q 69 1042 108 979 q 147 915 215 886 q 283 857 369 857 l 369 857 q 423 857 475 870 q 526 882 575 911 l 575 911 l 582 898 q 545 872 490 856 q 435 839 368 839 l 368 839 q 275 839 203 871 q 131 903 90 970 q 49 1037 49 1143 l 49 1143 q 49 1224 73 1301 q 97 1377 142 1444 q 186 1510 246 1561 q 306 1611 379 1640 q 451 1668 532 1668 m 518 1268 l 518 1268 l 544 1394 q 542 1413 537 1425 l 537 1425 q 530 1441 516 1448 q 502 1455 482 1455 l 482 1455 q 449 1455 421 1428 q 392 1401 371 1357 q 349 1312 337 1259 q 325 1206 325 1153 l 325 1153 q 325 1104 339 1080 q 352 1056 377 1056 l 377 1056 q 416 1056 457 1117 l 457 1117 q 494 1173 518 1268"},"#":{"ha":637,"x_min":48,"x_max":589,"o":"m 451 1602 l 471 1602 l 442 1454 l 589 1454 l 586 1434 l 438 1434 l 406 1267 l 553 1267 l 549 1247 l 402 1247 l 374 1101 l 354 1101 l 382 1247 l 215 1247 l 187 1101 l 167 1101 l 195 1247 l 48 1247 l 52 1267 l 199 1267 l 231 1434 l 85 1434 l 88 1454 l 235 1454 l 264 1602 l 284 1602 l 255 1454 l 422 1454 l 451 1602 m 418 1434 l 251 1434 l 219 1267 l 386 1267 l 418 1434"},"$":{"ha":523,"x_min":54,"x_max":482,"o":"m 247 1719 l 247 1719 q 275 1719 296 1715 l 296 1715 l 296 1840 l 316 1840 l 316 1710 q 320 1709 323 1708 l 323 1708 q 349 1696 369 1682 l 369 1682 q 381 1675 389 1672 q 396 1668 403 1668 l 403 1668 q 413 1668 418 1679 q 422 1690 425 1712 l 425 1712 l 448 1712 q 447 1695 446 1672 q 444 1648 444 1610 q 443 1571 443 1508 l 443 1508 l 420 1508 q 417 1556 399 1600 q 381 1644 347 1672 l 347 1672 q 333 1683 316 1690 l 316 1690 l 316 1392 q 360 1365 395 1338 l 395 1338 q 435 1306 459 1268 q 482 1230 482 1176 l 482 1176 q 482 1112 453 1070 q 424 1028 376 1007 l 376 1007 q 348 995 316 990 l 316 990 l 316 868 l 296 868 l 296 987 q 283 986 270 986 l 270 986 q 249 986 232 988 l 232 988 l 232 868 l 212 868 l 212 991 q 197 994 186 998 l 186 998 q 155 1010 133 1023 l 133 1023 q 121 1031 113 1034 q 105 1037 99 1037 l 99 1037 q 89 1037 85 1026 q 80 1015 77 993 l 77 993 l 54 993 q 56 1014 57 1043 q 57 1071 58 1117 q 58 1163 58 1233 l 58 1233 l 81 1233 q 84 1188 95 1147 q 106 1106 127 1074 q 148 1042 182 1024 l 182 1024 q 195 1016 212 1012 l 212 1012 l 212 1338 q 179 1359 149 1381 l 149 1381 q 108 1411 84 1451 q 59 1490 59 1546 l 59 1546 q 59 1605 86 1644 q 112 1682 155 1701 l 155 1701 q 182 1712 212 1717 l 212 1717 l 212 1840 l 232 1840 l 232 1719 q 239 1719 247 1719 m 232 1325 l 232 1325 l 232 1008 q 247 1006 263 1006 l 263 1006 q 280 1006 296 1010 l 296 1010 l 296 1284 q 269 1303 237 1322 l 237 1322 q 234 1324 232 1325 m 232 1698 l 232 1698 l 232 1444 q 235 1442 238 1441 l 238 1441 q 265 1424 296 1405 l 296 1405 l 296 1696 q 278 1700 256 1700 l 256 1700 q 243 1700 232 1698 m 316 1270 l 316 1016 q 321 1017 326 1020 l 326 1020 q 355 1033 374 1063 q 393 1092 393 1139 l 393 1139 q 393 1169 382 1194 q 371 1219 350 1240 l 350 1240 q 335 1255 316 1270 l 316 1270 m 212 1458 l 212 1458 l 212 1694 q 187 1686 169 1668 l 169 1668 q 134 1636 134 1584 l 134 1584 q 134 1550 148 1525 q 161 1500 185 1480 l 185 1480 q 197 1468 212 1458"},"%":{"ha":742,"x_min":35,"x_max":705,"o":"m 184 1761 l 184 1761 q 251 1761 292 1718 q 333 1675 333 1598 l 333 1598 q 333 1548 314 1510 q 294 1472 261 1451 q 227 1430 184 1430 l 184 1430 q 117 1430 76 1473 q 35 1516 35 1593 l 35 1593 q 35 1643 55 1681 q 74 1719 108 1740 q 141 1761 184 1761 m 554 1299 l 554 1299 q 515 1299 496 1261 q 477 1223 477 1150 l 477 1150 q 477 1077 499 1041 q 521 1004 558 1004 l 558 1004 q 597 1004 616 1042 q 634 1080 634 1152 l 634 1152 q 634 1226 613 1263 q 592 1299 554 1299 m 556 1317 l 556 1317 q 623 1317 664 1274 q 705 1231 705 1154 l 705 1154 q 705 1104 686 1066 q 666 1028 633 1007 q 599 986 556 986 l 556 986 q 489 986 448 1029 q 407 1072 407 1149 l 407 1149 q 407 1199 427 1237 q 446 1275 480 1296 q 513 1317 556 1317 m 182 1743 l 182 1743 q 143 1743 124 1705 q 105 1667 105 1594 l 105 1594 q 105 1521 127 1485 q 149 1448 186 1448 l 186 1448 q 225 1448 244 1486 q 262 1524 262 1596 l 262 1596 q 262 1670 241 1707 q 220 1743 182 1743 m 75 958 l 660 1824 l 679 1811 l 94 945 l 75 958"},"^":{"ha":536,"x_min":72,"x_max":464,"o":"m 259 1528 l 277 1528 q 300 1472 350 1420 q 399 1368 464 1336 l 464 1336 l 456 1322 q 396 1344 340 1377 q 283 1409 248 1442 l 248 1442 q 220 1409 174 1377 q 128 1344 80 1322 l 80 1322 l 72 1336 q 137 1368 187 1420 q 236 1472 259 1528 l 259 1528"},"*":{"ha":492,"x_min":56,"x_max":436,"o":"m 363 1629 l 363 1629 q 389 1644 406 1640 q 422 1635 429 1623 l 429 1623 q 436 1612 431 1596 q 426 1580 400 1565 l 400 1565 q 375 1551 339 1543 l 339 1543 q 304 1534 251 1519 l 251 1519 q 302 1504 338 1495 l 338 1495 q 376 1486 401 1472 l 401 1472 q 427 1457 432 1441 q 436 1424 428 1412 l 428 1412 q 422 1401 406 1397 q 390 1393 364 1408 l 364 1408 q 339 1422 313 1450 l 313 1450 q 288 1476 249 1513 l 249 1513 q 262 1463 272 1427 l 272 1427 q 283 1389 284 1361 l 284 1361 q 283 1331 271 1319 q 259 1307 245 1307 l 245 1307 q 232 1307 221 1319 q 210 1330 210 1361 l 210 1361 q 210 1390 221 1426 l 221 1426 q 232 1460 244 1513 l 244 1513 q 206 1478 180 1450 l 180 1450 q 153 1421 129 1407 l 129 1407 q 103 1392 87 1397 q 70 1401 63 1413 l 63 1413 q 56 1424 61 1440 q 66 1455 92 1471 l 92 1471 q 117 1485 154 1494 l 154 1494 q 188 1503 240 1518 l 240 1518 q 191 1532 155 1542 l 155 1542 q 116 1551 91 1564 l 91 1564 q 66 1579 62 1596 q 57 1612 64 1624 l 64 1624 q 70 1635 86 1639 q 102 1643 128 1628 l 128 1628 q 153 1614 179 1587 l 179 1587 q 204 1560 243 1522 l 243 1522 q 231 1572 220 1609 l 220 1609 q 209 1647 209 1675 l 209 1675 q 209 1705 221 1717 q 233 1729 246 1729 l 246 1729 q 260 1729 271 1717 q 282 1705 282 1675 l 282 1675 q 282 1647 272 1611 l 272 1611 q 261 1576 248 1523 l 248 1523 q 286 1559 312 1587 l 312 1587 q 339 1615 363 1629"},":":{"ha":266,"x_min":69,"x_max":197,"o":"m 133 1528 l 133 1528 q 159 1528 178 1509 q 197 1490 197 1464 l 197 1464 q 197 1438 178 1419 q 159 1400 133 1400 l 133 1400 q 107 1400 88 1419 q 69 1438 69 1464 l 69 1464 q 69 1490 88 1509 q 107 1528 133 1528 m 133 1114 l 133 1114 q 159 1114 178 1095 q 197 1076 197 1050 l 197 1050 q 197 1024 178 1005 q 159 986 133 986 l 133 986 q 107 986 88 1005 q 69 1024 69 1050 l 69 1050 q 69 1076 88 1095 q 107 1114 133 1114"},";":{"ha":285,"x_min":73,"x_max":213,"o":"m 137 1114 l 137 1114 q 159 1114 173 1105 q 187 1096 196 1082 l 196 1082 q 207 1066 210 1047 q 213 1028 213 1016 l 213 1016 q 213 967 188 927 q 163 887 110 862 l 110 862 l 101 880 q 132 893 155 921 q 177 949 177 978 l 177 978 q 177 990 174 999 l 174 999 q 158 986 137 986 l 137 986 q 111 986 92 1003 q 73 1020 73 1050 l 73 1050 q 73 1078 92 1096 q 111 1114 137 1114 m 144 1528 l 144 1528 q 170 1528 189 1509 q 208 1490 208 1464 l 208 1464 q 208 1438 189 1419 q 170 1400 144 1400 l 144 1400 q 118 1400 99 1419 q 80 1438 80 1464 l 80 1464 q 80 1490 99 1509 q 118 1528 144 1528"}," ":{"ha":249,"x_min":0,"x_max":249,"o":""}}}
